<svg width="216" height="216" viewBox="0 0 216 216" fill="none" xmlns="http://www.w3.org/2000/svg">
<circle cx="108.164" cy="107.949" r="103.336" stroke="#FFB72B" stroke-width="8"/>
<mask id="path-2-outside-1_21_3" maskUnits="userSpaceOnUse" x="73.6641" y="62.6128" width="68" height="90" fill="black">
<rect fill="white" x="73.6641" y="62.6128" width="68" height="90"/>
<path d="M131.504 127.829C131.504 127.957 131.376 128.309 131.12 128.885C130.928 129.397 130.8 129.749 130.736 129.941C130.48 130.581 130.224 131.221 129.968 131.861C129.776 132.501 129.584 133.141 129.392 133.781C129.072 134.997 128.784 136.213 128.528 137.429C128.272 138.645 127.984 139.829 127.664 140.981C127.344 141.877 126.8 142.325 126.032 142.325C124.24 142.325 122.128 142.261 119.696 142.133C117.264 142.005 115.184 141.941 113.456 141.941C110.064 141.941 106.896 141.973 103.952 142.037C101.072 142.037 98.1601 142.069 95.2161 142.133C93.7441 142.133 92.2401 142.197 90.7041 142.325C89.2321 142.389 87.7601 142.421 86.2881 142.421C85.9681 142.421 85.6161 142.325 85.2321 142.133C84.8481 141.941 84.6561 141.621 84.6561 141.173C84.6561 138.805 85.2001 136.533 86.2881 134.357C87.3121 132.373 88.7841 130.165 90.7041 127.733C92.6881 125.301 94.8641 122.837 97.2321 120.341C99.6001 117.845 101.904 115.477 104.144 113.237C106.448 110.997 108.432 109.077 110.096 107.477C112.4 105.237 114.384 102.549 116.048 99.4128C117.712 96.2128 118.544 92.9808 118.544 89.7168C118.544 87.2848 118.224 85.0128 117.584 82.9008C117.008 80.7248 115.952 78.9648 114.416 77.6208C112.88 76.2768 110.704 75.6048 107.888 75.6048C105.456 75.6048 103.28 76.0208 101.36 76.8528C99.5041 77.6208 97.8721 79.0928 96.4641 81.2688C95.5681 82.6768 94.9921 84.3408 94.7361 86.2608C94.5441 88.1168 94.3841 89.8768 94.2561 91.5408C94.1921 93.7168 92.9761 94.8048 90.6081 94.8048C87.2161 94.8048 85.5201 93.2048 85.5201 90.0048C85.5201 86.9968 86.2881 84.4048 87.8241 82.2288C89.4241 80.0528 91.4401 78.2608 93.8721 76.8528C96.3681 75.4448 99.0241 74.3888 101.84 73.6848C104.656 72.9808 107.312 72.6288 109.808 72.6288C112.944 72.6288 115.952 73.3008 118.832 74.6448C121.776 75.9888 124.176 77.9088 126.032 80.4048C127.888 82.8368 128.816 85.7488 128.816 89.1408C128.816 93.3648 128.016 96.9808 126.416 99.9888C124.816 102.997 122.704 105.653 120.08 107.957C117.52 110.261 114.736 112.405 111.728 114.389C108.72 116.309 105.776 118.325 102.896 120.437C100.912 121.909 98.9921 123.605 97.1361 125.525C95.3441 127.381 93.6481 129.269 92.0481 131.189C91.7921 131.573 91.3761 132.149 90.8001 132.917C90.2881 133.685 90.0321 134.325 90.0321 134.837C90.0321 135.349 90.2881 135.605 90.8001 135.605C94.6401 135.605 98.4801 135.541 102.32 135.413C106.16 135.221 110.032 135.093 113.936 135.029C117.52 134.965 120.496 134.421 122.864 133.397C125.296 132.373 127.6 130.389 129.776 127.445C129.968 127.189 130.192 127.061 130.448 127.061C130.64 127.061 130.864 127.157 131.12 127.349C131.376 127.477 131.504 127.637 131.504 127.829Z"/>
</mask>
<path d="M131.504 127.829C131.504 127.957 131.376 128.309 131.12 128.885C130.928 129.397 130.8 129.749 130.736 129.941C130.48 130.581 130.224 131.221 129.968 131.861C129.776 132.501 129.584 133.141 129.392 133.781C129.072 134.997 128.784 136.213 128.528 137.429C128.272 138.645 127.984 139.829 127.664 140.981C127.344 141.877 126.8 142.325 126.032 142.325C124.24 142.325 122.128 142.261 119.696 142.133C117.264 142.005 115.184 141.941 113.456 141.941C110.064 141.941 106.896 141.973 103.952 142.037C101.072 142.037 98.1601 142.069 95.2161 142.133C93.7441 142.133 92.2401 142.197 90.7041 142.325C89.2321 142.389 87.7601 142.421 86.2881 142.421C85.9681 142.421 85.6161 142.325 85.2321 142.133C84.8481 141.941 84.6561 141.621 84.6561 141.173C84.6561 138.805 85.2001 136.533 86.2881 134.357C87.3121 132.373 88.7841 130.165 90.7041 127.733C92.6881 125.301 94.8641 122.837 97.2321 120.341C99.6001 117.845 101.904 115.477 104.144 113.237C106.448 110.997 108.432 109.077 110.096 107.477C112.4 105.237 114.384 102.549 116.048 99.4128C117.712 96.2128 118.544 92.9808 118.544 89.7168C118.544 87.2848 118.224 85.0128 117.584 82.9008C117.008 80.7248 115.952 78.9648 114.416 77.6208C112.88 76.2768 110.704 75.6048 107.888 75.6048C105.456 75.6048 103.28 76.0208 101.36 76.8528C99.5041 77.6208 97.8721 79.0928 96.4641 81.2688C95.5681 82.6768 94.9921 84.3408 94.7361 86.2608C94.5441 88.1168 94.3841 89.8768 94.2561 91.5408C94.1921 93.7168 92.9761 94.8048 90.6081 94.8048C87.2161 94.8048 85.5201 93.2048 85.5201 90.0048C85.5201 86.9968 86.2881 84.4048 87.8241 82.2288C89.4241 80.0528 91.4401 78.2608 93.8721 76.8528C96.3681 75.4448 99.0241 74.3888 101.84 73.6848C104.656 72.9808 107.312 72.6288 109.808 72.6288C112.944 72.6288 115.952 73.3008 118.832 74.6448C121.776 75.9888 124.176 77.9088 126.032 80.4048C127.888 82.8368 128.816 85.7488 128.816 89.1408C128.816 93.3648 128.016 96.9808 126.416 99.9888C124.816 102.997 122.704 105.653 120.08 107.957C117.52 110.261 114.736 112.405 111.728 114.389C108.72 116.309 105.776 118.325 102.896 120.437C100.912 121.909 98.9921 123.605 97.1361 125.525C95.3441 127.381 93.6481 129.269 92.0481 131.189C91.7921 131.573 91.3761 132.149 90.8001 132.917C90.2881 133.685 90.0321 134.325 90.0321 134.837C90.0321 135.349 90.2881 135.605 90.8001 135.605C94.6401 135.605 98.4801 135.541 102.32 135.413C106.16 135.221 110.032 135.093 113.936 135.029C117.52 134.965 120.496 134.421 122.864 133.397C125.296 132.373 127.6 130.389 129.776 127.445C129.968 127.189 130.192 127.061 130.448 127.061C130.64 127.061 130.864 127.157 131.12 127.349C131.376 127.477 131.504 127.637 131.504 127.829Z" fill="white"/>
<path d="M131.12 128.885L121.982 124.823L121.861 125.095L121.757 125.374L131.12 128.885ZM130.736 129.941L140.021 133.655L140.13 133.382L140.223 133.103L130.736 129.941ZM129.968 131.861L120.683 128.147L120.518 128.561L120.39 128.987L129.968 131.861ZM129.392 133.781L119.814 130.907L119.765 131.071L119.721 131.236L129.392 133.781ZM128.528 137.429L138.314 139.489L138.314 139.489L128.528 137.429ZM127.664 140.981L137.082 144.344L137.203 144.005L137.299 143.657L127.664 140.981ZM119.696 142.133L120.222 132.147L120.222 132.147L119.696 142.133ZM103.952 142.037V152.037H104.061L104.169 152.034L103.952 142.037ZM95.2161 142.133V152.133H95.3248L95.4335 152.13L95.2161 142.133ZM90.7041 142.325L91.1385 152.315L91.3368 152.307L91.5346 152.29L90.7041 142.325ZM85.2321 142.133L89.7043 133.189L89.7043 133.189L85.2321 142.133ZM86.2881 134.357L77.4019 129.77L77.3725 129.827L77.3439 129.885L86.2881 134.357ZM90.7041 127.733L82.9555 121.412L82.9049 121.474L82.8553 121.536L90.7041 127.733ZM97.2321 120.341L104.487 127.223L104.487 127.223L97.2321 120.341ZM104.144 113.237L97.1733 106.067L97.1229 106.116L97.0731 106.166L104.144 113.237ZM110.096 107.477L117.027 114.685L117.047 114.666L117.067 114.647L110.096 107.477ZM116.048 99.4128L124.882 104.1L124.901 104.063L124.92 104.026L116.048 99.4128ZM117.584 82.9008L107.917 85.4597L107.962 85.6312L108.014 85.8009L117.584 82.9008ZM114.416 77.6208L121.001 70.095L121.001 70.095L114.416 77.6208ZM101.36 76.8528L105.184 86.093L105.26 86.0613L105.336 86.0283L101.36 76.8528ZM96.4641 81.2688L88.0684 75.8363L88.0478 75.8681L88.0275 75.9L96.4641 81.2688ZM94.7361 86.2608L84.8238 84.9392L84.8044 85.0852L84.7892 85.2318L94.7361 86.2608ZM94.2561 91.5408L84.2856 90.7738L84.2674 91.01L84.2604 91.2468L94.2561 91.5408ZM87.8241 82.2288L79.7676 76.3049L79.7103 76.3829L79.6544 76.462L87.8241 82.2288ZM93.8721 76.8528L88.9589 68.143L88.9102 68.1705L88.8618 68.1985L93.8721 76.8528ZM101.84 73.6848L99.4148 63.9834L99.4148 63.9834L101.84 73.6848ZM118.832 74.6448L114.603 83.7066L114.641 83.7243L114.679 83.7417L118.832 74.6448ZM126.032 80.4048L118.007 86.3718L118.045 86.4219L118.083 86.4715L126.032 80.4048ZM126.416 99.9888L117.587 95.2927L117.587 95.2927L126.416 99.9888ZM120.08 107.957L113.482 100.442L113.436 100.483L113.39 100.524L120.08 107.957ZM111.728 114.389L117.108 122.818L117.172 122.778L117.234 122.737L111.728 114.389ZM102.896 120.437L96.9825 112.373L96.96 112.389L96.9377 112.406L102.896 120.437ZM97.1361 125.525L89.9462 118.575L89.9421 118.579L97.1361 125.525ZM92.0481 131.189L84.3659 124.787L84.0239 125.197L83.7276 125.642L92.0481 131.189ZM90.8001 132.917L82.8001 126.917L82.6336 127.139L82.4796 127.37L90.8001 132.917ZM102.32 135.413L102.653 145.407L102.736 145.404L102.82 145.4L102.32 135.413ZM113.936 135.029L114.1 145.027L114.107 145.027L114.115 145.027L113.936 135.029ZM122.864 133.397L118.984 124.18L118.939 124.199L118.895 124.218L122.864 133.397ZM129.776 127.445L121.776 121.445L121.755 121.473L121.734 121.501L129.776 127.445ZM131.12 127.349L125.12 135.349L125.841 135.89L126.648 136.293L131.12 127.349ZM121.504 127.829C121.504 127.075 121.592 126.484 121.646 126.174C121.706 125.83 121.773 125.558 121.818 125.39C121.905 125.063 121.987 124.836 122.01 124.771C122.061 124.633 122.07 124.625 121.982 124.823L140.258 132.946C140.426 132.568 140.628 132.097 140.806 131.606C140.894 131.365 141.023 130.991 141.142 130.543C141.214 130.274 141.504 129.204 141.504 127.829H121.504ZM121.757 125.374C121.57 125.87 121.38 126.386 121.249 126.778L140.223 133.103C140.212 133.136 140.224 133.1 140.278 132.95C140.327 132.816 140.394 132.634 140.483 132.396L121.757 125.374ZM121.451 126.227C121.195 126.867 120.939 127.507 120.683 128.147L139.253 135.575C139.509 134.935 139.765 134.295 140.021 133.655L121.451 126.227ZM120.39 128.987C120.389 128.989 120.389 128.99 120.389 128.991C120.388 128.992 120.388 128.994 120.388 128.995C120.387 128.996 120.387 128.997 120.386 128.999C120.386 129 120.386 129.001 120.385 129.002C120.385 129.004 120.385 129.005 120.384 129.006C120.384 129.007 120.383 129.009 120.383 129.01C120.383 129.011 120.382 129.012 120.382 129.014C120.382 129.015 120.381 129.016 120.381 129.017C120.38 129.019 120.38 129.02 120.38 129.021C120.379 129.022 120.379 129.024 120.379 129.025C120.378 129.026 120.378 129.027 120.377 129.029C120.377 129.03 120.377 129.031 120.376 129.032C120.376 129.034 120.376 129.035 120.375 129.036C120.375 129.037 120.374 129.039 120.374 129.04C120.374 129.041 120.373 129.042 120.373 129.044C120.373 129.045 120.372 129.046 120.372 129.047C120.371 129.049 120.371 129.05 120.371 129.051C120.37 129.052 120.37 129.054 120.37 129.055C120.369 129.056 120.369 129.057 120.368 129.059C120.368 129.06 120.368 129.061 120.367 129.062C120.367 129.064 120.367 129.065 120.366 129.066C120.366 129.067 120.365 129.069 120.365 129.07C120.365 129.071 120.364 129.072 120.364 129.074C120.364 129.075 120.363 129.076 120.363 129.077C120.362 129.079 120.362 129.08 120.362 129.081C120.361 129.082 120.361 129.084 120.361 129.085C120.36 129.086 120.36 129.087 120.359 129.089C120.359 129.09 120.359 129.091 120.358 129.092C120.358 129.094 120.358 129.095 120.357 129.096C120.357 129.097 120.356 129.099 120.356 129.1C120.356 129.101 120.355 129.102 120.355 129.104C120.355 129.105 120.354 129.106 120.354 129.107C120.353 129.109 120.353 129.11 120.353 129.111C120.352 129.112 120.352 129.114 120.352 129.115C120.351 129.116 120.351 129.117 120.35 129.119C120.35 129.12 120.35 129.121 120.349 129.122C120.349 129.124 120.349 129.125 120.348 129.126C120.348 129.127 120.347 129.129 120.347 129.13C120.347 129.131 120.346 129.132 120.346 129.134C120.346 129.135 120.345 129.136 120.345 129.137C120.344 129.139 120.344 129.14 120.344 129.141C120.343 129.142 120.343 129.144 120.343 129.145C120.342 129.146 120.342 129.147 120.341 129.149C120.341 129.15 120.341 129.151 120.34 129.152C120.34 129.154 120.34 129.155 120.339 129.156C120.339 129.157 120.338 129.159 120.338 129.16C120.338 129.161 120.337 129.162 120.337 129.164C120.337 129.165 120.336 129.166 120.336 129.167C120.335 129.169 120.335 129.17 120.335 129.171C120.334 129.172 120.334 129.174 120.334 129.175C120.333 129.176 120.333 129.177 120.332 129.179C120.332 129.18 120.332 129.181 120.331 129.182C120.331 129.184 120.331 129.185 120.33 129.186C120.33 129.187 120.329 129.189 120.329 129.19C120.329 129.191 120.328 129.192 120.328 129.194C120.328 129.195 120.327 129.196 120.327 129.197C120.326 129.199 120.326 129.2 120.326 129.201C120.325 129.202 120.325 129.204 120.325 129.205C120.324 129.206 120.324 129.207 120.323 129.209C120.323 129.21 120.323 129.211 120.322 129.212C120.322 129.214 120.322 129.215 120.321 129.216C120.321 129.217 120.32 129.219 120.32 129.22C120.32 129.221 120.319 129.222 120.319 129.224C120.319 129.225 120.318 129.226 120.318 129.227C120.317 129.229 120.317 129.23 120.317 129.231C120.316 129.232 120.316 129.234 120.316 129.235C120.315 129.236 120.315 129.237 120.314 129.239C120.314 129.24 120.314 129.241 120.313 129.242C120.313 129.244 120.313 129.245 120.312 129.246C120.312 129.247 120.311 129.249 120.311 129.25C120.311 129.251 120.31 129.252 120.31 129.254C120.31 129.255 120.309 129.256 120.309 129.257C120.308 129.259 120.308 129.26 120.308 129.261C120.307 129.262 120.307 129.264 120.307 129.265C120.306 129.266 120.306 129.267 120.305 129.269C120.305 129.27 120.305 129.271 120.304 129.272C120.304 129.274 120.304 129.275 120.303 129.276C120.303 129.277 120.302 129.279 120.302 129.28C120.302 129.281 120.301 129.282 120.301 129.284C120.301 129.285 120.3 129.286 120.3 129.287C120.299 129.289 120.299 129.29 120.299 129.291C120.298 129.292 120.298 129.294 120.298 129.295C120.297 129.296 120.297 129.297 120.296 129.299C120.296 129.3 120.296 129.301 120.295 129.302C120.295 129.304 120.295 129.305 120.294 129.306C120.294 129.307 120.293 129.309 120.293 129.31C120.293 129.311 120.292 129.312 120.292 129.314C120.292 129.315 120.291 129.316 120.291 129.317C120.29 129.319 120.29 129.32 120.29 129.321C120.289 129.322 120.289 129.324 120.289 129.325C120.288 129.326 120.288 129.327 120.287 129.329C120.287 129.33 120.287 129.331 120.286 129.332C120.286 129.334 120.286 129.335 120.285 129.336C120.285 129.337 120.284 129.339 120.284 129.34C120.284 129.341 120.283 129.342 120.283 129.344C120.283 129.345 120.282 129.346 120.282 129.347C120.281 129.349 120.281 129.35 120.281 129.351C120.28 129.352 120.28 129.354 120.28 129.355C120.279 129.356 120.279 129.357 120.278 129.359C120.278 129.36 120.278 129.361 120.277 129.362C120.277 129.364 120.277 129.365 120.276 129.366C120.276 129.367 120.275 129.369 120.275 129.37C120.275 129.371 120.274 129.372 120.274 129.374C120.274 129.375 120.273 129.376 120.273 129.377C120.272 129.379 120.272 129.38 120.272 129.381C120.271 129.382 120.271 129.384 120.271 129.385C120.27 129.386 120.27 129.387 120.269 129.389C120.269 129.39 120.269 129.391 120.268 129.392C120.268 129.394 120.268 129.395 120.267 129.396C120.267 129.397 120.266 129.399 120.266 129.4C120.266 129.401 120.265 129.402 120.265 129.404C120.265 129.405 120.264 129.406 120.264 129.407C120.263 129.409 120.263 129.41 120.263 129.411C120.262 129.412 120.262 129.414 120.262 129.415C120.261 129.416 120.261 129.417 120.26 129.419C120.26 129.42 120.26 129.421 120.259 129.422C120.259 129.424 120.259 129.425 120.258 129.426C120.258 129.427 120.257 129.429 120.257 129.43C120.257 129.431 120.256 129.432 120.256 129.434C120.256 129.435 120.255 129.436 120.255 129.437C120.254 129.439 120.254 129.44 120.254 129.441C120.253 129.442 120.253 129.444 120.253 129.445C120.252 129.446 120.252 129.447 120.251 129.449C120.251 129.45 120.251 129.451 120.25 129.452C120.25 129.454 120.25 129.455 120.249 129.456C120.249 129.457 120.248 129.459 120.248 129.46C120.248 129.461 120.247 129.462 120.247 129.464C120.247 129.465 120.246 129.466 120.246 129.467C120.245 129.469 120.245 129.47 120.245 129.471C120.244 129.472 120.244 129.474 120.244 129.475C120.243 129.476 120.243 129.477 120.242 129.479C120.242 129.48 120.242 129.481 120.241 129.482C120.241 129.484 120.241 129.485 120.24 129.486C120.24 129.487 120.239 129.489 120.239 129.49C120.239 129.491 120.238 129.492 120.238 129.494C120.238 129.495 120.237 129.496 120.237 129.497C120.236 129.499 120.236 129.5 120.236 129.501C120.235 129.502 120.235 129.504 120.235 129.505C120.234 129.506 120.234 129.507 120.233 129.509C120.233 129.51 120.233 129.511 120.232 129.512C120.232 129.514 120.232 129.515 120.231 129.516C120.231 129.517 120.23 129.519 120.23 129.52C120.23 129.521 120.229 129.522 120.229 129.524C120.229 129.525 120.228 129.526 120.228 129.527C120.227 129.529 120.227 129.53 120.227 129.531C120.226 129.532 120.226 129.534 120.226 129.535C120.225 129.536 120.225 129.537 120.224 129.539C120.224 129.54 120.224 129.541 120.223 129.542C120.223 129.544 120.223 129.545 120.222 129.546C120.222 129.547 120.221 129.549 120.221 129.55C120.221 129.551 120.22 129.552 120.22 129.554C120.22 129.555 120.219 129.556 120.219 129.557C120.218 129.559 120.218 129.56 120.218 129.561C120.217 129.562 120.217 129.564 120.217 129.565C120.216 129.566 120.216 129.567 120.215 129.569C120.215 129.57 120.215 129.571 120.214 129.572C120.214 129.574 120.214 129.575 120.213 129.576C120.213 129.577 120.212 129.579 120.212 129.58C120.212 129.581 120.211 129.582 120.211 129.584C120.211 129.585 120.21 129.586 120.21 129.587C120.209 129.589 120.209 129.59 120.209 129.591C120.208 129.592 120.208 129.594 120.208 129.595C120.207 129.596 120.207 129.597 120.206 129.599C120.206 129.6 120.206 129.601 120.205 129.602C120.205 129.604 120.205 129.605 120.204 129.606C120.204 129.607 120.203 129.609 120.203 129.61C120.203 129.611 120.202 129.612 120.202 129.614C120.202 129.615 120.201 129.616 120.201 129.617C120.2 129.619 120.2 129.62 120.2 129.621C120.199 129.622 120.199 129.624 120.199 129.625C120.198 129.626 120.198 129.627 120.197 129.629C120.197 129.63 120.197 129.631 120.196 129.632C120.196 129.634 120.196 129.635 120.195 129.636C120.195 129.637 120.194 129.639 120.194 129.64C120.194 129.641 120.193 129.642 120.193 129.644C120.193 129.645 120.192 129.646 120.192 129.647C120.191 129.649 120.191 129.65 120.191 129.651C120.19 129.652 120.19 129.654 120.19 129.655C120.189 129.656 120.189 129.657 120.188 129.659C120.188 129.66 120.188 129.661 120.187 129.662C120.187 129.664 120.187 129.665 120.186 129.666C120.186 129.667 120.185 129.669 120.185 129.67C120.185 129.671 120.184 129.672 120.184 129.674C120.184 129.675 120.183 129.676 120.183 129.677C120.182 129.679 120.182 129.68 120.182 129.681C120.181 129.682 120.181 129.684 120.181 129.685C120.18 129.686 120.18 129.687 120.179 129.689C120.179 129.69 120.179 129.691 120.178 129.692C120.178 129.694 120.178 129.695 120.177 129.696C120.177 129.697 120.176 129.699 120.176 129.7C120.176 129.701 120.175 129.702 120.175 129.704C120.175 129.705 120.174 129.706 120.174 129.707C120.173 129.709 120.173 129.71 120.173 129.711C120.172 129.712 120.172 129.714 120.172 129.715C120.171 129.716 120.171 129.717 120.17 129.719C120.17 129.72 120.17 129.721 120.169 129.722C120.169 129.724 120.169 129.725 120.168 129.726C120.168 129.727 120.167 129.729 120.167 129.73C120.167 129.731 120.166 129.732 120.166 129.734C120.166 129.735 120.165 129.736 120.165 129.737C120.164 129.739 120.164 129.74 120.164 129.741C120.163 129.742 120.163 129.744 120.163 129.745C120.162 129.746 120.162 129.747 120.161 129.749C120.161 129.75 120.161 129.751 120.16 129.752C120.16 129.754 120.16 129.755 120.159 129.756C120.159 129.757 120.158 129.759 120.158 129.76C120.158 129.761 120.157 129.762 120.157 129.764C120.157 129.765 120.156 129.766 120.156 129.767C120.155 129.769 120.155 129.77 120.155 129.771C120.154 129.772 120.154 129.774 120.154 129.775C120.153 129.776 120.153 129.777 120.152 129.779C120.152 129.78 120.152 129.781 120.151 129.782C120.151 129.784 120.151 129.785 120.15 129.786C120.15 129.787 120.149 129.789 120.149 129.79C120.149 129.791 120.148 129.792 120.148 129.794C120.148 129.795 120.147 129.796 120.147 129.797C120.146 129.799 120.146 129.8 120.146 129.801C120.145 129.802 120.145 129.804 120.145 129.805C120.144 129.806 120.144 129.807 120.143 129.809C120.143 129.81 120.143 129.811 120.142 129.812C120.142 129.814 120.142 129.815 120.141 129.816C120.141 129.817 120.14 129.819 120.14 129.82C120.14 129.821 120.139 129.822 120.139 129.824C120.139 129.825 120.138 129.826 120.138 129.827C120.137 129.829 120.137 129.83 120.137 129.831C120.136 129.832 120.136 129.834 120.136 129.835C120.135 129.836 120.135 129.837 120.134 129.839C120.134 129.84 120.134 129.841 120.133 129.842C120.133 129.844 120.133 129.845 120.132 129.846C120.132 129.847 120.131 129.849 120.131 129.85C120.131 129.851 120.13 129.852 120.13 129.854C120.13 129.855 120.129 129.856 120.129 129.857C120.128 129.859 120.128 129.86 120.128 129.861C120.127 129.862 120.127 129.864 120.127 129.865C120.126 129.866 120.126 129.867 120.125 129.869C120.125 129.87 120.125 129.871 120.124 129.872C120.124 129.874 120.124 129.875 120.123 129.876C120.123 129.877 120.122 129.879 120.122 129.88C120.122 129.881 120.121 129.882 120.121 129.884C120.121 129.885 120.12 129.886 120.12 129.887C120.119 129.889 120.119 129.89 120.119 129.891C120.118 129.892 120.118 129.894 120.118 129.895C120.117 129.896 120.117 129.897 120.116 129.899C120.116 129.9 120.116 129.901 120.115 129.902C120.115 129.904 120.115 129.905 120.114 129.906C120.114 129.907 120.113 129.909 120.113 129.91C120.113 129.911 120.112 129.912 120.112 129.914C120.112 129.915 120.111 129.916 120.111 129.917C120.11 129.919 120.11 129.92 120.11 129.921C120.109 129.922 120.109 129.924 120.109 129.925C120.108 129.926 120.108 129.927 120.107 129.929C120.107 129.93 120.107 129.931 120.106 129.932C120.106 129.934 120.106 129.935 120.105 129.936C120.105 129.937 120.104 129.939 120.104 129.94C120.104 129.941 120.103 129.942 120.103 129.944C120.103 129.945 120.102 129.946 120.102 129.947C120.101 129.949 120.101 129.95 120.101 129.951C120.1 129.952 120.1 129.954 120.1 129.955C120.099 129.956 120.099 129.957 120.098 129.959C120.098 129.96 120.098 129.961 120.097 129.962C120.097 129.964 120.097 129.965 120.096 129.966C120.096 129.967 120.095 129.969 120.095 129.97C120.095 129.971 120.094 129.972 120.094 129.974C120.094 129.975 120.093 129.976 120.093 129.977C120.092 129.979 120.092 129.98 120.092 129.981C120.091 129.982 120.091 129.984 120.091 129.985C120.09 129.986 120.09 129.987 120.089 129.989C120.089 129.99 120.089 129.991 120.088 129.992C120.088 129.994 120.088 129.995 120.087 129.996C120.087 129.997 120.086 129.999 120.086 130C120.086 130.001 120.085 130.002 120.085 130.004C120.085 130.005 120.084 130.006 120.084 130.007C120.083 130.009 120.083 130.01 120.083 130.011C120.082 130.012 120.082 130.014 120.082 130.015C120.081 130.016 120.081 130.017 120.08 130.019C120.08 130.02 120.08 130.021 120.079 130.022C120.079 130.024 120.079 130.025 120.078 130.026C120.078 130.027 120.077 130.029 120.077 130.03C120.077 130.031 120.076 130.032 120.076 130.034C120.076 130.035 120.075 130.036 120.075 130.037C120.074 130.039 120.074 130.04 120.074 130.041C120.073 130.042 120.073 130.044 120.073 130.045C120.072 130.046 120.072 130.047 120.071 130.049C120.071 130.05 120.071 130.051 120.07 130.052C120.07 130.054 120.07 130.055 120.069 130.056C120.069 130.057 120.068 130.059 120.068 130.06C120.068 130.061 120.067 130.062 120.067 130.064C120.067 130.065 120.066 130.066 120.066 130.067C120.065 130.069 120.065 130.07 120.065 130.071C120.064 130.072 120.064 130.074 120.064 130.075C120.063 130.076 120.063 130.077 120.062 130.079C120.062 130.08 120.062 130.081 120.061 130.082C120.061 130.084 120.061 130.085 120.06 130.086C120.06 130.087 120.059 130.089 120.059 130.09C120.059 130.091 120.058 130.092 120.058 130.094C120.058 130.095 120.057 130.096 120.057 130.097C120.056 130.099 120.056 130.1 120.056 130.101C120.055 130.102 120.055 130.104 120.055 130.105C120.054 130.106 120.054 130.107 120.053 130.109C120.053 130.11 120.053 130.111 120.052 130.112C120.052 130.114 120.052 130.115 120.051 130.116C120.051 130.117 120.05 130.119 120.05 130.12C120.05 130.121 120.049 130.122 120.049 130.124C120.049 130.125 120.048 130.126 120.048 130.127C120.047 130.129 120.047 130.13 120.047 130.131C120.046 130.132 120.046 130.134 120.046 130.135C120.045 130.136 120.045 130.137 120.044 130.139C120.044 130.14 120.044 130.141 120.043 130.142C120.043 130.144 120.043 130.145 120.042 130.146C120.042 130.147 120.041 130.149 120.041 130.15C120.041 130.151 120.04 130.152 120.04 130.154C120.04 130.155 120.039 130.156 120.039 130.157C120.038 130.159 120.038 130.16 120.038 130.161C120.037 130.162 120.037 130.164 120.037 130.165C120.036 130.166 120.036 130.167 120.035 130.169C120.035 130.17 120.035 130.171 120.034 130.172C120.034 130.174 120.034 130.175 120.033 130.176C120.033 130.177 120.032 130.179 120.032 130.18C120.032 130.181 120.031 130.182 120.031 130.184C120.031 130.185 120.03 130.186 120.03 130.187C120.029 130.189 120.029 130.19 120.029 130.191C120.028 130.192 120.028 130.194 120.028 130.195C120.027 130.196 120.027 130.197 120.026 130.199C120.026 130.2 120.026 130.201 120.025 130.202C120.025 130.204 120.025 130.205 120.024 130.206C120.024 130.207 120.023 130.209 120.023 130.21C120.023 130.211 120.022 130.212 120.022 130.214C120.022 130.215 120.021 130.216 120.021 130.217C120.02 130.219 120.02 130.22 120.02 130.221C120.019 130.222 120.019 130.224 120.019 130.225C120.018 130.226 120.018 130.227 120.017 130.229C120.017 130.23 120.017 130.231 120.016 130.232C120.016 130.234 120.016 130.235 120.015 130.236C120.015 130.237 120.014 130.239 120.014 130.24C120.014 130.241 120.013 130.242 120.013 130.244C120.013 130.245 120.012 130.246 120.012 130.247C120.011 130.249 120.011 130.25 120.011 130.251C120.01 130.252 120.01 130.254 120.01 130.255C120.009 130.256 120.009 130.257 120.008 130.259C120.008 130.26 120.008 130.261 120.007 130.262C120.007 130.264 120.007 130.265 120.006 130.266C120.006 130.267 120.005 130.269 120.005 130.27C120.005 130.271 120.004 130.272 120.004 130.274C120.004 130.275 120.003 130.276 120.003 130.277C120.002 130.279 120.002 130.28 120.002 130.281C120.001 130.282 120.001 130.284 120.001 130.285C120 130.286 120 130.287 119.999 130.289C119.999 130.29 119.999 130.291 119.998 130.292C119.998 130.294 119.998 130.295 119.997 130.296C119.997 130.297 119.996 130.299 119.996 130.3C119.996 130.301 119.995 130.302 119.995 130.304C119.995 130.305 119.994 130.306 119.994 130.307C119.993 130.309 119.993 130.31 119.993 130.311C119.992 130.312 119.992 130.314 119.992 130.315C119.991 130.316 119.991 130.317 119.99 130.319C119.99 130.32 119.99 130.321 119.989 130.322C119.989 130.324 119.989 130.325 119.988 130.326C119.988 130.327 119.987 130.329 119.987 130.33C119.987 130.331 119.986 130.332 119.986 130.334C119.986 130.335 119.985 130.336 119.985 130.337C119.984 130.339 119.984 130.34 119.984 130.341C119.983 130.342 119.983 130.344 119.983 130.345C119.982 130.346 119.982 130.347 119.981 130.349C119.981 130.35 119.981 130.351 119.98 130.352C119.98 130.354 119.98 130.355 119.979 130.356C119.979 130.357 119.978 130.359 119.978 130.36C119.978 130.361 119.977 130.362 119.977 130.364C119.977 130.365 119.976 130.366 119.976 130.367C119.975 130.369 119.975 130.37 119.975 130.371C119.974 130.372 119.974 130.374 119.974 130.375C119.973 130.376 119.973 130.377 119.972 130.379C119.972 130.38 119.972 130.381 119.971 130.382C119.971 130.384 119.971 130.385 119.97 130.386C119.97 130.387 119.969 130.389 119.969 130.39C119.969 130.391 119.968 130.392 119.968 130.394C119.968 130.395 119.967 130.396 119.967 130.397C119.966 130.399 119.966 130.4 119.966 130.401C119.965 130.402 119.965 130.404 119.965 130.405C119.964 130.406 119.964 130.407 119.963 130.409C119.963 130.41 119.963 130.411 119.962 130.412C119.962 130.414 119.962 130.415 119.961 130.416C119.961 130.417 119.96 130.419 119.96 130.42C119.96 130.421 119.959 130.422 119.959 130.424C119.959 130.425 119.958 130.426 119.958 130.427C119.957 130.429 119.957 130.43 119.957 130.431C119.956 130.432 119.956 130.434 119.956 130.435C119.955 130.436 119.955 130.437 119.954 130.439C119.954 130.44 119.954 130.441 119.953 130.442C119.953 130.444 119.953 130.445 119.952 130.446C119.952 130.447 119.951 130.449 119.951 130.45C119.951 130.451 119.95 130.452 119.95 130.454C119.95 130.455 119.949 130.456 119.949 130.457C119.948 130.459 119.948 130.46 119.948 130.461C119.947 130.462 119.947 130.464 119.947 130.465C119.946 130.466 119.946 130.467 119.945 130.469C119.945 130.47 119.945 130.471 119.944 130.472C119.944 130.474 119.944 130.475 119.943 130.476C119.943 130.477 119.942 130.479 119.942 130.48C119.942 130.481 119.941 130.482 119.941 130.484C119.941 130.485 119.94 130.486 119.94 130.487C119.939 130.489 119.939 130.49 119.939 130.491C119.938 130.492 119.938 130.494 119.938 130.495C119.937 130.496 119.937 130.497 119.936 130.499C119.936 130.5 119.936 130.501 119.935 130.502C119.935 130.504 119.935 130.505 119.934 130.506C119.934 130.507 119.933 130.509 119.933 130.51C119.933 130.511 119.932 130.512 119.932 130.514C119.932 130.515 119.931 130.516 119.931 130.517C119.93 130.519 119.93 130.52 119.93 130.521C119.929 130.522 119.929 130.524 119.929 130.525C119.928 130.526 119.928 130.527 119.927 130.529C119.927 130.53 119.927 130.531 119.926 130.532C119.926 130.534 119.926 130.535 119.925 130.536C119.925 130.537 119.924 130.539 119.924 130.54C119.924 130.541 119.923 130.542 119.923 130.544C119.923 130.545 119.922 130.546 119.922 130.547C119.921 130.549 119.921 130.55 119.921 130.551C119.92 130.552 119.92 130.554 119.92 130.555C119.919 130.556 119.919 130.557 119.918 130.559C119.918 130.56 119.918 130.561 119.917 130.562C119.917 130.564 119.917 130.565 119.916 130.566C119.916 130.567 119.915 130.569 119.915 130.57C119.915 130.571 119.914 130.572 119.914 130.574C119.914 130.575 119.913 130.576 119.913 130.577C119.912 130.579 119.912 130.58 119.912 130.581C119.911 130.582 119.911 130.584 119.911 130.585C119.91 130.586 119.91 130.587 119.909 130.589C119.909 130.59 119.909 130.591 119.908 130.592C119.908 130.594 119.908 130.595 119.907 130.596C119.907 130.597 119.906 130.599 119.906 130.6C119.906 130.601 119.905 130.602 119.905 130.604C119.905 130.605 119.904 130.606 119.904 130.607C119.903 130.609 119.903 130.61 119.903 130.611C119.902 130.612 119.902 130.614 119.902 130.615C119.901 130.616 119.901 130.617 119.9 130.619C119.9 130.62 119.9 130.621 119.899 130.622C119.899 130.624 119.899 130.625 119.898 130.626C119.898 130.627 119.897 130.629 119.897 130.63C119.897 130.631 119.896 130.632 119.896 130.634C119.896 130.635 119.895 130.636 119.895 130.637C119.894 130.639 119.894 130.64 119.894 130.641C119.893 130.642 119.893 130.644 119.893 130.645C119.892 130.646 119.892 130.647 119.891 130.649C119.891 130.65 119.891 130.651 119.89 130.652C119.89 130.654 119.89 130.655 119.889 130.656C119.889 130.657 119.888 130.659 119.888 130.66C119.888 130.661 119.887 130.662 119.887 130.664C119.887 130.665 119.886 130.666 119.886 130.667C119.885 130.669 119.885 130.67 119.885 130.671C119.884 130.672 119.884 130.674 119.884 130.675C119.883 130.676 119.883 130.677 119.882 130.679C119.882 130.68 119.882 130.681 119.881 130.682C119.881 130.684 119.881 130.685 119.88 130.686C119.88 130.687 119.879 130.689 119.879 130.69C119.879 130.691 119.878 130.692 119.878 130.694C119.878 130.695 119.877 130.696 119.877 130.697C119.876 130.699 119.876 130.7 119.876 130.701C119.875 130.702 119.875 130.704 119.875 130.705C119.874 130.706 119.874 130.707 119.873 130.709C119.873 130.71 119.873 130.711 119.872 130.712C119.872 130.714 119.872 130.715 119.871 130.716C119.871 130.717 119.87 130.719 119.87 130.72C119.87 130.721 119.869 130.722 119.869 130.724C119.869 130.725 119.868 130.726 119.868 130.727C119.867 130.729 119.867 130.73 119.867 130.731C119.866 130.732 119.866 130.734 119.866 130.735C119.865 130.736 119.865 130.737 119.864 130.739C119.864 130.74 119.864 130.741 119.863 130.742C119.863 130.744 119.863 130.745 119.862 130.746C119.862 130.747 119.861 130.749 119.861 130.75C119.861 130.751 119.86 130.752 119.86 130.754C119.86 130.755 119.859 130.756 119.859 130.757C119.858 130.759 119.858 130.76 119.858 130.761C119.857 130.762 119.857 130.764 119.857 130.765C119.856 130.766 119.856 130.767 119.855 130.769C119.855 130.77 119.855 130.771 119.854 130.772C119.854 130.774 119.854 130.775 119.853 130.776C119.853 130.777 119.852 130.779 119.852 130.78C119.852 130.781 119.851 130.782 119.851 130.784C119.851 130.785 119.85 130.786 119.85 130.787C119.849 130.789 119.849 130.79 119.849 130.791C119.848 130.792 119.848 130.794 119.848 130.795C119.847 130.796 119.847 130.797 119.846 130.799C119.846 130.8 119.846 130.801 119.845 130.802C119.845 130.804 119.845 130.805 119.844 130.806C119.844 130.807 119.843 130.809 119.843 130.81C119.843 130.811 119.842 130.812 119.842 130.814C119.842 130.815 119.841 130.816 119.841 130.817C119.84 130.819 119.84 130.82 119.84 130.821C119.839 130.822 119.839 130.824 119.839 130.825C119.838 130.826 119.838 130.827 119.837 130.829C119.837 130.83 119.837 130.831 119.836 130.832C119.836 130.834 119.836 130.835 119.835 130.836C119.835 130.837 119.834 130.839 119.834 130.84C119.834 130.841 119.833 130.842 119.833 130.844C119.833 130.845 119.832 130.846 119.832 130.847C119.831 130.849 119.831 130.85 119.831 130.851C119.83 130.852 119.83 130.854 119.83 130.855C119.829 130.856 119.829 130.857 119.828 130.859C119.828 130.86 119.828 130.861 119.827 130.862C119.827 130.864 119.827 130.865 119.826 130.866C119.826 130.867 119.825 130.869 119.825 130.87C119.825 130.871 119.824 130.872 119.824 130.874C119.824 130.875 119.823 130.876 119.823 130.877C119.822 130.879 119.822 130.88 119.822 130.881C119.821 130.882 119.821 130.884 119.821 130.885C119.82 130.886 119.82 130.887 119.819 130.889C119.819 130.89 119.819 130.891 119.818 130.892C119.818 130.894 119.818 130.895 119.817 130.896C119.817 130.897 119.816 130.899 119.816 130.9C119.816 130.901 119.815 130.902 119.815 130.904C119.815 130.905 119.814 130.906 119.814 130.907L138.97 136.654C138.971 136.653 138.971 136.652 138.972 136.651C138.972 136.649 138.972 136.648 138.973 136.647C138.973 136.646 138.973 136.644 138.974 136.643C138.974 136.642 138.975 136.641 138.975 136.639C138.975 136.638 138.976 136.637 138.976 136.636C138.976 136.634 138.977 136.633 138.977 136.632C138.978 136.631 138.978 136.629 138.978 136.628C138.979 136.627 138.979 136.626 138.979 136.624C138.98 136.623 138.98 136.622 138.981 136.621C138.981 136.619 138.981 136.618 138.982 136.617C138.982 136.616 138.982 136.614 138.983 136.613C138.983 136.612 138.984 136.611 138.984 136.609C138.984 136.608 138.985 136.607 138.985 136.606C138.985 136.604 138.986 136.603 138.986 136.602C138.987 136.601 138.987 136.599 138.987 136.598C138.988 136.597 138.988 136.596 138.988 136.594C138.989 136.593 138.989 136.592 138.99 136.591C138.99 136.589 138.99 136.588 138.991 136.587C138.991 136.586 138.991 136.584 138.992 136.583C138.992 136.582 138.993 136.581 138.993 136.579C138.993 136.578 138.994 136.577 138.994 136.576C138.994 136.574 138.995 136.573 138.995 136.572C138.996 136.571 138.996 136.569 138.996 136.568C138.997 136.567 138.997 136.566 138.997 136.564C138.998 136.563 138.998 136.562 138.999 136.561C138.999 136.559 138.999 136.558 139 136.557C139 136.556 139 136.554 139.001 136.553C139.001 136.552 139.002 136.551 139.002 136.549C139.002 136.548 139.003 136.547 139.003 136.546C139.003 136.544 139.004 136.543 139.004 136.542C139.005 136.541 139.005 136.539 139.005 136.538C139.006 136.537 139.006 136.536 139.006 136.534C139.007 136.533 139.007 136.532 139.008 136.531C139.008 136.529 139.008 136.528 139.009 136.527C139.009 136.526 139.009 136.524 139.01 136.523C139.01 136.522 139.011 136.521 139.011 136.519C139.011 136.518 139.012 136.517 139.012 136.516C139.012 136.514 139.013 136.513 139.013 136.512C139.014 136.511 139.014 136.509 139.014 136.508C139.015 136.507 139.015 136.506 139.015 136.504C139.016 136.503 139.016 136.502 139.017 136.501C139.017 136.499 139.017 136.498 139.018 136.497C139.018 136.496 139.018 136.494 139.019 136.493C139.019 136.492 139.02 136.491 139.02 136.489C139.02 136.488 139.021 136.487 139.021 136.486C139.021 136.484 139.022 136.483 139.022 136.482C139.023 136.481 139.023 136.479 139.023 136.478C139.024 136.477 139.024 136.476 139.024 136.474C139.025 136.473 139.025 136.472 139.026 136.471C139.026 136.469 139.026 136.468 139.027 136.467C139.027 136.466 139.027 136.464 139.028 136.463C139.028 136.462 139.029 136.461 139.029 136.459C139.029 136.458 139.03 136.457 139.03 136.456C139.03 136.454 139.031 136.453 139.031 136.452C139.032 136.451 139.032 136.449 139.032 136.448C139.033 136.447 139.033 136.446 139.033 136.444C139.034 136.443 139.034 136.442 139.035 136.441C139.035 136.439 139.035 136.438 139.036 136.437C139.036 136.436 139.036 136.434 139.037 136.433C139.037 136.432 139.038 136.431 139.038 136.429C139.038 136.428 139.039 136.427 139.039 136.426C139.039 136.424 139.04 136.423 139.04 136.422C139.041 136.421 139.041 136.419 139.041 136.418C139.042 136.417 139.042 136.416 139.042 136.414C139.043 136.413 139.043 136.412 139.044 136.411C139.044 136.409 139.044 136.408 139.045 136.407C139.045 136.406 139.045 136.404 139.046 136.403C139.046 136.402 139.047 136.401 139.047 136.399C139.047 136.398 139.048 136.397 139.048 136.396C139.048 136.394 139.049 136.393 139.049 136.392C139.05 136.391 139.05 136.389 139.05 136.388C139.051 136.387 139.051 136.386 139.051 136.384C139.052 136.383 139.052 136.382 139.053 136.381C139.053 136.379 139.053 136.378 139.054 136.377C139.054 136.376 139.054 136.374 139.055 136.373C139.055 136.372 139.056 136.371 139.056 136.369C139.056 136.368 139.057 136.367 139.057 136.366C139.057 136.364 139.058 136.363 139.058 136.362C139.059 136.361 139.059 136.359 139.059 136.358C139.06 136.357 139.06 136.356 139.06 136.354C139.061 136.353 139.061 136.352 139.062 136.351C139.062 136.349 139.062 136.348 139.063 136.347C139.063 136.346 139.063 136.344 139.064 136.343C139.064 136.342 139.065 136.341 139.065 136.339C139.065 136.338 139.066 136.337 139.066 136.336C139.066 136.334 139.067 136.333 139.067 136.332C139.068 136.331 139.068 136.329 139.068 136.328C139.069 136.327 139.069 136.326 139.069 136.324C139.07 136.323 139.07 136.322 139.071 136.321C139.071 136.319 139.071 136.318 139.072 136.317C139.072 136.316 139.072 136.314 139.073 136.313C139.073 136.312 139.074 136.311 139.074 136.309C139.074 136.308 139.075 136.307 139.075 136.306C139.075 136.304 139.076 136.303 139.076 136.302C139.077 136.301 139.077 136.299 139.077 136.298C139.078 136.297 139.078 136.296 139.078 136.294C139.079 136.293 139.079 136.292 139.08 136.291C139.08 136.289 139.08 136.288 139.081 136.287C139.081 136.286 139.081 136.284 139.082 136.283C139.082 136.282 139.083 136.281 139.083 136.279C139.083 136.278 139.084 136.277 139.084 136.276C139.084 136.274 139.085 136.273 139.085 136.272C139.086 136.271 139.086 136.269 139.086 136.268C139.087 136.267 139.087 136.266 139.087 136.264C139.088 136.263 139.088 136.262 139.089 136.261C139.089 136.259 139.089 136.258 139.09 136.257C139.09 136.256 139.09 136.254 139.091 136.253C139.091 136.252 139.092 136.251 139.092 136.249C139.092 136.248 139.093 136.247 139.093 136.246C139.093 136.244 139.094 136.243 139.094 136.242C139.095 136.241 139.095 136.239 139.095 136.238C139.096 136.237 139.096 136.236 139.096 136.234C139.097 136.233 139.097 136.232 139.098 136.231C139.098 136.229 139.098 136.228 139.099 136.227C139.099 136.226 139.099 136.224 139.1 136.223C139.1 136.222 139.101 136.221 139.101 136.219C139.101 136.218 139.102 136.217 139.102 136.216C139.102 136.214 139.103 136.213 139.103 136.212C139.104 136.211 139.104 136.209 139.104 136.208C139.105 136.207 139.105 136.206 139.105 136.204C139.106 136.203 139.106 136.202 139.107 136.201C139.107 136.199 139.107 136.198 139.108 136.197C139.108 136.196 139.108 136.194 139.109 136.193C139.109 136.192 139.11 136.191 139.11 136.189C139.11 136.188 139.111 136.187 139.111 136.186C139.111 136.184 139.112 136.183 139.112 136.182C139.113 136.181 139.113 136.179 139.113 136.178C139.114 136.177 139.114 136.176 139.114 136.174C139.115 136.173 139.115 136.172 139.116 136.171C139.116 136.169 139.116 136.168 139.117 136.167C139.117 136.166 139.117 136.164 139.118 136.163C139.118 136.162 139.119 136.161 139.119 136.159C139.119 136.158 139.12 136.157 139.12 136.156C139.12 136.154 139.121 136.153 139.121 136.152C139.122 136.151 139.122 136.149 139.122 136.148C139.123 136.147 139.123 136.146 139.123 136.144C139.124 136.143 139.124 136.142 139.125 136.141C139.125 136.139 139.125 136.138 139.126 136.137C139.126 136.136 139.126 136.134 139.127 136.133C139.127 136.132 139.128 136.131 139.128 136.129C139.128 136.128 139.129 136.127 139.129 136.126C139.129 136.124 139.13 136.123 139.13 136.122C139.131 136.121 139.131 136.119 139.131 136.118C139.132 136.117 139.132 136.116 139.132 136.114C139.133 136.113 139.133 136.112 139.134 136.111C139.134 136.109 139.134 136.108 139.135 136.107C139.135 136.106 139.135 136.104 139.136 136.103C139.136 136.102 139.137 136.101 139.137 136.099C139.137 136.098 139.138 136.097 139.138 136.096C139.138 136.094 139.139 136.093 139.139 136.092C139.14 136.091 139.14 136.089 139.14 136.088C139.141 136.087 139.141 136.086 139.141 136.084C139.142 136.083 139.142 136.082 139.143 136.081C139.143 136.079 139.143 136.078 139.144 136.077C139.144 136.076 139.144 136.074 139.145 136.073C139.145 136.072 139.146 136.071 139.146 136.069C139.146 136.068 139.147 136.067 139.147 136.066C139.147 136.064 139.148 136.063 139.148 136.062C139.149 136.061 139.149 136.059 139.149 136.058C139.15 136.057 139.15 136.056 139.15 136.054C139.151 136.053 139.151 136.052 139.152 136.051C139.152 136.049 139.152 136.048 139.153 136.047C139.153 136.046 139.153 136.044 139.154 136.043C139.154 136.042 139.155 136.041 139.155 136.039C139.155 136.038 139.156 136.037 139.156 136.036C139.156 136.034 139.157 136.033 139.157 136.032C139.158 136.031 139.158 136.029 139.158 136.028C139.159 136.027 139.159 136.026 139.159 136.024C139.16 136.023 139.16 136.022 139.161 136.021C139.161 136.019 139.161 136.018 139.162 136.017C139.162 136.016 139.162 136.014 139.163 136.013C139.163 136.012 139.164 136.011 139.164 136.009C139.164 136.008 139.165 136.007 139.165 136.006C139.165 136.004 139.166 136.003 139.166 136.002C139.167 136.001 139.167 135.999 139.167 135.998C139.168 135.997 139.168 135.996 139.168 135.994C139.169 135.993 139.169 135.992 139.17 135.991C139.17 135.989 139.17 135.988 139.171 135.987C139.171 135.986 139.171 135.984 139.172 135.983C139.172 135.982 139.173 135.981 139.173 135.979C139.173 135.978 139.174 135.977 139.174 135.976C139.174 135.974 139.175 135.973 139.175 135.972C139.176 135.971 139.176 135.969 139.176 135.968C139.177 135.967 139.177 135.966 139.177 135.964C139.178 135.963 139.178 135.962 139.179 135.961C139.179 135.959 139.179 135.958 139.18 135.957C139.18 135.956 139.18 135.954 139.181 135.953C139.181 135.952 139.182 135.951 139.182 135.949C139.182 135.948 139.183 135.947 139.183 135.946C139.183 135.944 139.184 135.943 139.184 135.942C139.185 135.941 139.185 135.939 139.185 135.938C139.186 135.937 139.186 135.936 139.186 135.934C139.187 135.933 139.187 135.932 139.188 135.931C139.188 135.929 139.188 135.928 139.189 135.927C139.189 135.926 139.189 135.924 139.19 135.923C139.19 135.922 139.191 135.921 139.191 135.919C139.191 135.918 139.192 135.917 139.192 135.916C139.192 135.914 139.193 135.913 139.193 135.912C139.194 135.911 139.194 135.909 139.194 135.908C139.195 135.907 139.195 135.906 139.195 135.904C139.196 135.903 139.196 135.902 139.197 135.901C139.197 135.899 139.197 135.898 139.198 135.897C139.198 135.896 139.198 135.894 139.199 135.893C139.199 135.892 139.2 135.891 139.2 135.889C139.2 135.888 139.201 135.887 139.201 135.886C139.201 135.884 139.202 135.883 139.202 135.882C139.203 135.881 139.203 135.879 139.203 135.878C139.204 135.877 139.204 135.876 139.204 135.874C139.205 135.873 139.205 135.872 139.206 135.871C139.206 135.869 139.206 135.868 139.207 135.867C139.207 135.866 139.207 135.864 139.208 135.863C139.208 135.862 139.209 135.861 139.209 135.859C139.209 135.858 139.21 135.857 139.21 135.856C139.21 135.854 139.211 135.853 139.211 135.852C139.212 135.851 139.212 135.849 139.212 135.848C139.213 135.847 139.213 135.846 139.213 135.844C139.214 135.843 139.214 135.842 139.215 135.841C139.215 135.839 139.215 135.838 139.216 135.837C139.216 135.836 139.216 135.834 139.217 135.833C139.217 135.832 139.218 135.831 139.218 135.829C139.218 135.828 139.219 135.827 139.219 135.826C139.219 135.824 139.22 135.823 139.22 135.822C139.221 135.821 139.221 135.819 139.221 135.818C139.222 135.817 139.222 135.816 139.222 135.814C139.223 135.813 139.223 135.812 139.224 135.811C139.224 135.809 139.224 135.808 139.225 135.807C139.225 135.806 139.225 135.804 139.226 135.803C139.226 135.802 139.227 135.801 139.227 135.799C139.227 135.798 139.228 135.797 139.228 135.796C139.228 135.794 139.229 135.793 139.229 135.792C139.23 135.791 139.23 135.789 139.23 135.788C139.231 135.787 139.231 135.786 139.231 135.784C139.232 135.783 139.232 135.782 139.233 135.781C139.233 135.779 139.233 135.778 139.234 135.777C139.234 135.776 139.234 135.774 139.235 135.773C139.235 135.772 139.236 135.771 139.236 135.769C139.236 135.768 139.237 135.767 139.237 135.766C139.237 135.764 139.238 135.763 139.238 135.762C139.239 135.761 139.239 135.759 139.239 135.758C139.24 135.757 139.24 135.756 139.24 135.754C139.241 135.753 139.241 135.752 139.242 135.751C139.242 135.749 139.242 135.748 139.243 135.747C139.243 135.746 139.243 135.744 139.244 135.743C139.244 135.742 139.245 135.741 139.245 135.739C139.245 135.738 139.246 135.737 139.246 135.736C139.246 135.734 139.247 135.733 139.247 135.732C139.248 135.731 139.248 135.729 139.248 135.728C139.249 135.727 139.249 135.726 139.249 135.724C139.25 135.723 139.25 135.722 139.251 135.721C139.251 135.719 139.251 135.718 139.252 135.717C139.252 135.716 139.252 135.714 139.253 135.713C139.253 135.712 139.254 135.711 139.254 135.709C139.254 135.708 139.255 135.707 139.255 135.706C139.255 135.704 139.256 135.703 139.256 135.702C139.257 135.701 139.257 135.699 139.257 135.698C139.258 135.697 139.258 135.696 139.258 135.694C139.259 135.693 139.259 135.692 139.26 135.691C139.26 135.689 139.26 135.688 139.261 135.687C139.261 135.686 139.261 135.684 139.262 135.683C139.262 135.682 139.263 135.681 139.263 135.679C139.263 135.678 139.264 135.677 139.264 135.676C139.264 135.674 139.265 135.673 139.265 135.672C139.266 135.671 139.266 135.669 139.266 135.668C139.267 135.667 139.267 135.666 139.267 135.664C139.268 135.663 139.268 135.662 139.269 135.661C139.269 135.659 139.269 135.658 139.27 135.657C139.27 135.656 139.27 135.654 139.271 135.653C139.271 135.652 139.272 135.651 139.272 135.649C139.272 135.648 139.273 135.647 139.273 135.646C139.273 135.644 139.274 135.643 139.274 135.642C139.275 135.641 139.275 135.639 139.275 135.638C139.276 135.637 139.276 135.636 139.276 135.634C139.277 135.633 139.277 135.632 139.278 135.631C139.278 135.629 139.278 135.628 139.279 135.627C139.279 135.626 139.279 135.624 139.28 135.623C139.28 135.622 139.281 135.621 139.281 135.619C139.281 135.618 139.282 135.617 139.282 135.616C139.282 135.614 139.283 135.613 139.283 135.612C139.284 135.611 139.284 135.609 139.284 135.608C139.285 135.607 139.285 135.606 139.285 135.604C139.286 135.603 139.286 135.602 139.287 135.601C139.287 135.599 139.287 135.598 139.288 135.597C139.288 135.596 139.288 135.594 139.289 135.593C139.289 135.592 139.29 135.591 139.29 135.589C139.29 135.588 139.291 135.587 139.291 135.586C139.291 135.584 139.292 135.583 139.292 135.582C139.293 135.581 139.293 135.579 139.293 135.578C139.294 135.577 139.294 135.576 139.294 135.574C139.295 135.573 139.295 135.572 139.296 135.571C139.296 135.569 139.296 135.568 139.297 135.567C139.297 135.566 139.297 135.564 139.298 135.563C139.298 135.562 139.299 135.561 139.299 135.559C139.299 135.558 139.3 135.557 139.3 135.556C139.3 135.554 139.301 135.553 139.301 135.552C139.302 135.551 139.302 135.549 139.302 135.548C139.303 135.547 139.303 135.546 139.303 135.544C139.304 135.543 139.304 135.542 139.305 135.541C139.305 135.539 139.305 135.538 139.306 135.537C139.306 135.536 139.306 135.534 139.307 135.533C139.307 135.532 139.308 135.531 139.308 135.529C139.308 135.528 139.309 135.527 139.309 135.526C139.309 135.524 139.31 135.523 139.31 135.522C139.311 135.521 139.311 135.519 139.311 135.518C139.312 135.517 139.312 135.516 139.312 135.514C139.313 135.513 139.313 135.512 139.314 135.511C139.314 135.509 139.314 135.508 139.315 135.507C139.315 135.506 139.315 135.504 139.316 135.503C139.316 135.502 139.317 135.501 139.317 135.499C139.317 135.498 139.318 135.497 139.318 135.496C139.318 135.494 139.319 135.493 139.319 135.492C139.32 135.491 139.32 135.489 139.32 135.488C139.321 135.487 139.321 135.486 139.321 135.484C139.322 135.483 139.322 135.482 139.323 135.481C139.323 135.479 139.323 135.478 139.324 135.477C139.324 135.476 139.324 135.474 139.325 135.473C139.325 135.472 139.326 135.471 139.326 135.469C139.326 135.468 139.327 135.467 139.327 135.466C139.327 135.464 139.328 135.463 139.328 135.462C139.329 135.461 139.329 135.459 139.329 135.458C139.33 135.457 139.33 135.456 139.33 135.454C139.331 135.453 139.331 135.452 139.332 135.451C139.332 135.449 139.332 135.448 139.333 135.447C139.333 135.446 139.333 135.444 139.334 135.443C139.334 135.442 139.335 135.441 139.335 135.439C139.335 135.438 139.336 135.437 139.336 135.436C139.336 135.434 139.337 135.433 139.337 135.432C139.338 135.431 139.338 135.429 139.338 135.428C139.339 135.427 139.339 135.426 139.339 135.424C139.34 135.423 139.34 135.422 139.341 135.421C139.341 135.419 139.341 135.418 139.342 135.417C139.342 135.416 139.342 135.414 139.343 135.413C139.343 135.412 139.344 135.411 139.344 135.409C139.344 135.408 139.345 135.407 139.345 135.406C139.345 135.404 139.346 135.403 139.346 135.402C139.347 135.401 139.347 135.399 139.347 135.398C139.348 135.397 139.348 135.396 139.348 135.394C139.349 135.393 139.349 135.392 139.35 135.391C139.35 135.389 139.35 135.388 139.351 135.387C139.351 135.386 139.351 135.384 139.352 135.383C139.352 135.382 139.353 135.381 139.353 135.379C139.353 135.378 139.354 135.377 139.354 135.376C139.354 135.374 139.355 135.373 139.355 135.372C139.356 135.371 139.356 135.369 139.356 135.368C139.357 135.367 139.357 135.366 139.357 135.364C139.358 135.363 139.358 135.362 139.359 135.361C139.359 135.359 139.359 135.358 139.36 135.357C139.36 135.356 139.36 135.354 139.361 135.353C139.361 135.352 139.362 135.351 139.362 135.349C139.362 135.348 139.363 135.347 139.363 135.346C139.363 135.344 139.364 135.343 139.364 135.342C139.365 135.341 139.365 135.339 139.365 135.338C139.366 135.337 139.366 135.336 139.366 135.334C139.367 135.333 139.367 135.332 139.368 135.331C139.368 135.329 139.368 135.328 139.369 135.327C139.369 135.326 139.369 135.324 139.37 135.323C139.37 135.322 139.371 135.321 139.371 135.319C139.371 135.318 139.372 135.317 139.372 135.316C139.372 135.314 139.373 135.313 139.373 135.312C139.374 135.311 139.374 135.309 139.374 135.308C139.375 135.307 139.375 135.306 139.375 135.304C139.376 135.303 139.376 135.302 139.377 135.301C139.377 135.299 139.377 135.298 139.378 135.297C139.378 135.296 139.378 135.294 139.379 135.293C139.379 135.292 139.38 135.291 139.38 135.289C139.38 135.288 139.381 135.287 139.381 135.286C139.381 135.284 139.382 135.283 139.382 135.282C139.383 135.281 139.383 135.279 139.383 135.278C139.384 135.277 139.384 135.276 139.384 135.274C139.385 135.273 139.385 135.272 139.386 135.271C139.386 135.269 139.386 135.268 139.387 135.267C139.387 135.266 139.387 135.264 139.388 135.263C139.388 135.262 139.389 135.261 139.389 135.259C139.389 135.258 139.39 135.257 139.39 135.256C139.39 135.254 139.391 135.253 139.391 135.252C139.392 135.251 139.392 135.249 139.392 135.248C139.393 135.247 139.393 135.246 139.393 135.244C139.394 135.243 139.394 135.242 139.395 135.241C139.395 135.239 139.395 135.238 139.396 135.237C139.396 135.236 139.396 135.234 139.397 135.233C139.397 135.232 139.398 135.231 139.398 135.229C139.398 135.228 139.399 135.227 139.399 135.226C139.399 135.224 139.4 135.223 139.4 135.222C139.401 135.221 139.401 135.219 139.401 135.218C139.402 135.217 139.402 135.216 139.402 135.214C139.403 135.213 139.403 135.212 139.404 135.211C139.404 135.209 139.404 135.208 139.405 135.207C139.405 135.206 139.405 135.204 139.406 135.203C139.406 135.202 139.407 135.201 139.407 135.199C139.407 135.198 139.408 135.197 139.408 135.196C139.408 135.194 139.409 135.193 139.409 135.192C139.41 135.191 139.41 135.189 139.41 135.188C139.411 135.187 139.411 135.186 139.411 135.184C139.412 135.183 139.412 135.182 139.413 135.181C139.413 135.179 139.413 135.178 139.414 135.177C139.414 135.176 139.414 135.174 139.415 135.173C139.415 135.172 139.416 135.171 139.416 135.169C139.416 135.168 139.417 135.167 139.417 135.166C139.417 135.164 139.418 135.163 139.418 135.162C139.419 135.161 139.419 135.159 139.419 135.158C139.42 135.157 139.42 135.156 139.42 135.154C139.421 135.153 139.421 135.152 139.422 135.151C139.422 135.149 139.422 135.148 139.423 135.147C139.423 135.146 139.423 135.144 139.424 135.143C139.424 135.142 139.425 135.141 139.425 135.139C139.425 135.138 139.426 135.137 139.426 135.136C139.426 135.134 139.427 135.133 139.427 135.132C139.428 135.131 139.428 135.129 139.428 135.128C139.429 135.127 139.429 135.126 139.429 135.124C139.43 135.123 139.43 135.122 139.431 135.121C139.431 135.119 139.431 135.118 139.432 135.117C139.432 135.116 139.432 135.114 139.433 135.113C139.433 135.112 139.434 135.111 139.434 135.109C139.434 135.108 139.435 135.107 139.435 135.106C139.435 135.104 139.436 135.103 139.436 135.102C139.437 135.101 139.437 135.099 139.437 135.098C139.438 135.097 139.438 135.096 139.438 135.094C139.439 135.093 139.439 135.092 139.44 135.091C139.44 135.089 139.44 135.088 139.441 135.087C139.441 135.086 139.441 135.084 139.442 135.083C139.442 135.082 139.443 135.081 139.443 135.079C139.443 135.078 139.444 135.077 139.444 135.076C139.444 135.074 139.445 135.073 139.445 135.072C139.446 135.071 139.446 135.069 139.446 135.068C139.447 135.067 139.447 135.066 139.447 135.064C139.448 135.063 139.448 135.062 139.449 135.061C139.449 135.059 139.449 135.058 139.45 135.057C139.45 135.056 139.45 135.054 139.451 135.053C139.451 135.052 139.452 135.051 139.452 135.049C139.452 135.048 139.453 135.047 139.453 135.046C139.453 135.044 139.454 135.043 139.454 135.042C139.455 135.041 139.455 135.039 139.455 135.038C139.456 135.037 139.456 135.036 139.456 135.034C139.457 135.033 139.457 135.032 139.458 135.031C139.458 135.029 139.458 135.028 139.459 135.027C139.459 135.026 139.459 135.024 139.46 135.023C139.46 135.022 139.461 135.021 139.461 135.019C139.461 135.018 139.462 135.017 139.462 135.016C139.462 135.014 139.463 135.013 139.463 135.012C139.464 135.011 139.464 135.009 139.464 135.008C139.465 135.007 139.465 135.006 139.465 135.004C139.466 135.003 139.466 135.002 139.467 135.001C139.467 134.999 139.467 134.998 139.468 134.997C139.468 134.996 139.468 134.994 139.469 134.993C139.469 134.992 139.47 134.991 139.47 134.989C139.47 134.988 139.471 134.987 139.471 134.986C139.471 134.984 139.472 134.983 139.472 134.982C139.473 134.981 139.473 134.979 139.473 134.978C139.474 134.977 139.474 134.976 139.474 134.974C139.475 134.973 139.475 134.972 139.476 134.971C139.476 134.969 139.476 134.968 139.477 134.967C139.477 134.966 139.477 134.964 139.478 134.963C139.478 134.962 139.479 134.961 139.479 134.959C139.479 134.958 139.48 134.957 139.48 134.956C139.48 134.954 139.481 134.953 139.481 134.952C139.482 134.951 139.482 134.949 139.482 134.948C139.483 134.947 139.483 134.946 139.483 134.944C139.484 134.943 139.484 134.942 139.485 134.941C139.485 134.939 139.485 134.938 139.486 134.937C139.486 134.936 139.486 134.934 139.487 134.933C139.487 134.932 139.488 134.931 139.488 134.929C139.488 134.928 139.489 134.927 139.489 134.926C139.489 134.924 139.49 134.923 139.49 134.922C139.491 134.921 139.491 134.919 139.491 134.918C139.492 134.917 139.492 134.916 139.492 134.914C139.493 134.913 139.493 134.912 139.494 134.911C139.494 134.909 139.494 134.908 139.495 134.907C139.495 134.906 139.495 134.904 139.496 134.903C139.496 134.902 139.497 134.901 139.497 134.899C139.497 134.898 139.498 134.897 139.498 134.896C139.498 134.894 139.499 134.893 139.499 134.892C139.5 134.891 139.5 134.889 139.5 134.888C139.501 134.887 139.501 134.886 139.501 134.884C139.502 134.883 139.502 134.882 139.503 134.881C139.503 134.879 139.503 134.878 139.504 134.877C139.504 134.876 139.504 134.874 139.505 134.873C139.505 134.872 139.506 134.871 139.506 134.869C139.506 134.868 139.507 134.867 139.507 134.866C139.507 134.864 139.508 134.863 139.508 134.862C139.509 134.861 139.509 134.859 139.509 134.858C139.51 134.857 139.51 134.856 139.51 134.854C139.511 134.853 139.511 134.852 139.512 134.851C139.512 134.849 139.512 134.848 139.513 134.847C139.513 134.846 139.513 134.844 139.514 134.843C139.514 134.842 139.515 134.841 139.515 134.839C139.515 134.838 139.516 134.837 139.516 134.836C139.516 134.834 139.517 134.833 139.517 134.832C139.518 134.831 139.518 134.829 139.518 134.828C139.519 134.827 139.519 134.826 139.519 134.824C139.52 134.823 139.52 134.822 139.521 134.821C139.521 134.819 139.521 134.818 139.522 134.817C139.522 134.816 139.522 134.814 139.523 134.813C139.523 134.812 139.524 134.811 139.524 134.809C139.524 134.808 139.525 134.807 139.525 134.806C139.525 134.804 139.526 134.803 139.526 134.802C139.527 134.801 139.527 134.799 139.527 134.798C139.528 134.797 139.528 134.796 139.528 134.794C139.529 134.793 139.529 134.792 139.53 134.791C139.53 134.789 139.53 134.788 139.531 134.787C139.531 134.786 139.531 134.784 139.532 134.783C139.532 134.782 139.533 134.781 139.533 134.779C139.533 134.778 139.534 134.777 139.534 134.776C139.534 134.774 139.535 134.773 139.535 134.772C139.536 134.771 139.536 134.769 139.536 134.768C139.537 134.767 139.537 134.766 139.537 134.764C139.538 134.763 139.538 134.762 139.539 134.761C139.539 134.759 139.539 134.758 139.54 134.757C139.54 134.756 139.54 134.754 139.541 134.753C139.541 134.752 139.542 134.751 139.542 134.749C139.542 134.748 139.543 134.747 139.543 134.746C139.543 134.744 139.544 134.743 139.544 134.742C139.545 134.741 139.545 134.739 139.545 134.738C139.546 134.737 139.546 134.736 139.546 134.734L120.39 128.987ZM119.721 131.236C119.36 132.611 119.033 133.988 118.743 135.369L138.314 139.489C138.535 138.437 138.785 137.383 139.063 136.326L119.721 131.236ZM118.743 135.369C118.529 136.386 118.29 137.364 118.029 138.304L137.299 143.657C137.678 142.294 138.016 140.904 138.314 139.489L118.743 135.369ZM118.247 137.617C118.489 136.939 119.13 135.529 120.659 134.269C122.342 132.883 124.32 132.325 126.032 132.325V152.325C128.513 152.325 131.146 151.542 133.373 149.708C135.446 148.001 136.519 145.919 137.082 144.344L118.247 137.617ZM126.032 132.325C124.465 132.325 122.536 132.268 120.222 132.147L119.171 152.119C121.72 152.253 124.016 152.325 126.032 152.325V132.325ZM120.222 132.147C117.679 132.013 115.414 131.941 113.456 131.941V151.941C114.954 151.941 116.849 151.997 119.171 152.119L120.222 132.147ZM113.456 131.941C110.002 131.941 106.761 131.973 103.735 132.039L104.169 152.034C107.031 151.972 110.126 151.941 113.456 151.941V131.941ZM103.952 132.037C100.998 132.037 98.0136 132.07 94.9988 132.135L95.4335 152.13C98.3066 152.068 101.146 152.037 103.952 152.037V132.037ZM95.2161 132.133C93.4543 132.133 91.673 132.209 89.8737 132.359L91.5346 152.29C92.8072 152.184 94.0339 152.133 95.2161 152.133V132.133ZM90.2698 132.334C88.9423 132.392 87.6151 132.421 86.2881 132.421V152.421C87.9051 152.421 89.5219 152.386 91.1385 152.315L90.2698 132.334ZM86.2881 132.421C87.9578 132.421 89.1522 132.913 89.7043 133.189L80.76 151.077C82.08 151.737 83.9785 152.421 86.2881 152.421V132.421ZM89.7043 133.189C90.9515 133.812 92.3521 134.899 93.3751 136.604C94.3829 138.284 94.6561 139.949 94.6561 141.173H74.6561C74.6561 142.844 75.0253 144.894 76.2252 146.894C77.4401 148.919 79.1288 150.261 80.76 151.077L89.7043 133.189ZM94.6561 141.173C94.6561 140.401 94.819 139.656 95.2324 138.829L77.3439 129.885C75.5812 133.41 74.6561 137.209 74.6561 141.173H94.6561ZM95.1743 138.943C95.8167 137.699 96.8893 136.037 98.553 133.929L82.8553 121.536C80.679 124.293 78.8076 127.047 77.4019 129.77L95.1743 138.943ZM98.4528 134.054C100.265 131.833 102.274 129.556 104.487 127.223L89.9775 113.458C87.454 116.118 85.1112 118.769 82.9555 121.412L98.4528 134.054ZM104.487 127.223C106.799 124.786 109.042 122.481 111.215 120.308L97.0731 106.166C94.766 108.473 92.4008 110.904 89.9775 113.458L104.487 127.223ZM111.115 120.407C113.41 118.175 115.38 116.269 117.027 114.685L103.165 100.268C101.484 101.885 99.4859 103.819 97.1733 106.067L111.115 120.407ZM117.067 114.647C120.191 111.609 122.78 108.06 124.882 104.1L107.215 94.7256C105.988 97.0377 104.609 98.8642 103.125 100.307L117.067 114.647ZM124.92 104.026C127.246 99.5536 128.544 94.7501 128.544 89.7168H108.544C108.544 91.2115 108.178 92.872 107.176 94.7993L124.92 104.026ZM128.544 89.7168C128.544 86.4015 128.107 83.1436 127.154 80.0007L108.014 85.8009C108.342 86.882 108.544 88.168 108.544 89.7168H128.544ZM127.251 80.3419C126.22 76.4466 124.189 72.8846 121.001 70.095L107.831 85.1465C107.827 85.1427 107.815 85.1321 107.802 85.1164C107.789 85.1008 107.784 85.0912 107.785 85.0937C107.787 85.0967 107.802 85.1217 107.825 85.1769C107.848 85.2328 107.881 85.3244 107.917 85.4597L127.251 80.3419ZM121.001 70.095C117.052 66.6394 112.206 65.6048 107.888 65.6048V85.6048C108.522 85.6048 108.744 85.6828 108.681 85.6635C108.643 85.6517 108.531 85.6131 108.372 85.5264C108.209 85.4383 108.022 85.3135 107.831 85.1466L121.001 70.095ZM107.888 65.6048C104.308 65.6048 100.746 66.2203 97.3841 67.6772L105.336 86.0283C105.814 85.8213 106.604 85.6048 107.888 85.6048V65.6048ZM97.5366 67.6126C93.3284 69.3539 90.2604 72.4487 88.0684 75.8363L104.86 86.7013C105.17 86.2215 105.381 86.0136 105.442 85.9585C105.49 85.915 105.405 86.0014 105.184 86.093L97.5366 67.6126ZM88.0275 75.9C86.2357 78.7157 85.2412 81.8091 84.8238 84.9392L104.648 87.5824C104.743 86.8725 104.901 86.6379 104.901 86.6375L88.0275 75.9ZM84.7892 85.2318C84.5892 87.165 84.421 89.0129 84.2856 90.7738L104.227 92.3078C104.347 90.7407 104.499 89.0685 104.683 87.2898L84.7892 85.2318ZM84.2604 91.2468C84.281 90.5474 84.5758 88.3727 86.6282 86.5364C88.5315 84.8334 90.4253 84.8048 90.6081 84.8048V104.805C93.159 104.805 96.8448 104.232 99.9641 101.441C103.232 98.5169 104.167 94.7102 104.252 91.8348L84.2604 91.2468ZM90.6081 84.8048C90.3131 84.8048 91.9513 84.7242 93.6543 86.3309C95.4667 88.0406 95.5201 89.9096 95.5201 90.0048H75.5201C75.5201 93.3 76.4215 97.5689 79.9299 100.879C83.3289 104.085 87.5112 104.805 90.6081 104.805V84.8048ZM95.5201 90.0048C95.5201 88.7841 95.7995 88.2709 95.9938 87.9956L79.6544 76.462C76.7767 80.5387 75.5201 85.2095 75.5201 90.0048H95.5201ZM95.8806 88.1527C96.6311 87.132 97.5939 86.2531 98.8825 85.507L88.8618 68.1985C85.2864 70.2685 82.2171 72.9736 79.7676 76.3049L95.8806 88.1527ZM98.7853 85.5626C100.49 84.6009 102.308 83.8755 104.265 83.3862L99.4148 63.9834C95.7401 64.902 92.2461 66.2887 88.9589 68.143L98.7853 85.5626ZM104.265 83.3862C106.414 82.8492 108.25 82.6288 109.808 82.6288V62.6288C106.375 62.6288 102.899 63.1124 99.4148 63.9834L104.265 83.3862ZM109.808 82.6288C111.463 82.6288 113.029 82.972 114.603 83.7066L123.061 65.583C118.875 63.6296 114.426 62.6288 109.808 62.6288V82.6288ZM114.679 83.7417C116.154 84.4149 117.199 85.2846 118.007 86.3718L134.057 74.4378C131.153 70.533 127.398 67.5627 122.985 65.5479L114.679 83.7417ZM118.083 86.4715C118.464 86.9708 118.816 87.6895 118.816 89.1408H138.816C138.816 83.8081 137.313 78.7028 133.982 74.3381L118.083 86.4715ZM118.816 89.1408C118.816 92.1135 118.255 94.037 117.587 95.2927L135.245 104.685C137.777 99.9246 138.816 94.616 138.816 89.1408H118.816ZM117.587 95.2927C116.569 97.2075 115.221 98.9151 113.482 100.442L126.678 115.471C130.187 112.39 133.063 108.786 135.245 104.685L117.587 95.2927ZM113.39 100.524C111.218 102.479 108.832 104.319 106.222 106.041L117.234 122.737C120.64 120.49 123.822 118.043 126.77 115.39L113.39 100.524ZM106.348 105.96C103.158 107.996 100.036 110.133 96.9825 112.373L108.81 128.501C111.516 126.516 114.282 124.622 117.108 122.818L106.348 105.96ZM96.9377 112.406C94.4806 114.229 92.1521 116.293 89.9462 118.575L104.326 132.475C105.832 130.917 107.344 129.589 108.855 128.468L96.9377 112.406ZM89.9421 118.579C87.9862 120.605 86.1269 122.674 84.3659 124.787L99.7303 137.591C101.169 135.864 102.702 134.157 104.33 132.471L89.9421 118.579ZM83.7276 125.642C83.6336 125.783 83.3567 126.175 82.8001 126.917L98.8001 138.917C99.3956 138.123 99.9506 137.363 100.369 136.736L83.7276 125.642ZM82.4796 127.37C81.6356 128.636 80.0321 131.319 80.0321 134.837H100.032C100.032 136.21 99.6995 137.21 99.5089 137.687C99.3101 138.184 99.1283 138.452 99.1206 138.464L82.4796 127.37ZM80.0321 134.837C80.0321 136.634 80.4883 139.819 83.1531 142.484C85.8179 145.149 89.0027 145.605 90.8001 145.605V125.605C92.0856 125.605 94.8864 125.933 97.2952 128.342C99.704 130.751 100.032 133.551 100.032 134.837H80.0321ZM90.8001 145.605C94.7513 145.605 98.7023 145.539 102.653 145.407L101.987 125.418C98.2579 125.543 94.529 125.605 90.8001 125.605V145.605ZM102.82 145.4C106.546 145.214 110.306 145.09 114.1 145.027L113.772 125.03C109.758 125.096 105.774 125.228 101.821 125.425L102.82 145.4ZM114.115 145.027C118.53 144.948 122.898 144.277 126.833 142.575L118.895 124.218C118.094 124.565 116.51 124.981 113.758 125.03L114.115 145.027ZM126.745 142.613C131.354 140.673 134.969 137.243 137.818 133.389L121.734 121.501C120.231 123.535 119.239 124.073 118.984 124.18L126.745 142.613ZM137.776 133.445C137.244 134.154 136.371 135.084 135.049 135.839C133.663 136.632 132.075 137.061 130.448 137.061V117.061C126.264 117.061 123.333 119.369 121.776 121.445L137.776 133.445ZM130.448 137.061C128.878 137.061 127.631 136.671 126.821 136.324C126.014 135.979 125.443 135.591 125.12 135.349L137.12 119.349C136.183 118.646 133.825 117.061 130.448 117.061V137.061ZM126.648 136.293C125.962 135.95 124.724 135.217 123.599 133.812C122.347 132.246 121.504 130.162 121.504 127.829H141.504C141.504 122.14 137.375 119.296 135.592 118.405L126.648 136.293Z" fill="#FFB72A" mask="url(#path-2-outside-1_21_3)"/>
</svg>
