<svg width="215" height="216" viewBox="0 0 215 216" fill="none" xmlns="http://www.w3.org/2000/svg">
<circle cx="107.492" cy="107.949" r="103.336" fill="#FFCB67" stroke="#FFB72B" stroke-width="8"/>
<g filter="url(#filter0_d_21_2)">
<mask id="path-2-outside-1_21_2" maskUnits="userSpaceOnUse" x="76.7173" y="60.6128" width="59" height="93" fill="black">
<rect fill="white" x="76.7173" y="60.6128" width="59" height="93"/>
<path d="M124.757 141.269C124.757 141.717 124.629 142.133 124.373 142.517C124.117 142.901 123.765 143.093 123.317 143.093C122.485 143.093 121.621 143.061 120.725 142.997C119.829 142.933 118.933 142.869 118.037 142.805C116.565 142.677 115.061 142.613 113.525 142.613C111.989 142.613 110.453 142.613 108.917 142.613C105.269 142.613 101.621 142.709 97.9733 142.901C97.3333 142.965 96.6933 142.997 96.0533 142.997C95.4133 143.061 94.7733 143.093 94.1333 143.093C92.9173 143.093 92.3093 142.453 92.3093 141.173C92.3093 140.661 92.5333 140.245 92.9813 139.925C93.4293 139.605 93.8773 139.445 94.3253 139.445C94.9653 139.445 95.5733 139.477 96.1493 139.541C96.7893 139.605 97.4293 139.637 98.0693 139.637C98.9653 139.637 99.8293 139.541 100.661 139.349C101.493 139.157 101.909 138.453 101.909 137.237C101.909 127.637 101.941 118.037 102.005 108.437C102.069 98.8368 102.101 89.2368 102.101 79.6368C101.653 79.8288 100.789 80.1488 99.5093 80.5968C98.2933 80.9808 96.9813 81.4288 95.5733 81.9408C94.1653 82.3888 92.8853 82.8048 91.7333 83.1888C90.5813 83.5088 89.8773 83.6688 89.6213 83.6688C88.9813 83.6688 88.4373 83.5088 87.9893 83.1888C87.5413 82.8048 87.3173 82.2928 87.3173 81.6528C87.3173 81.0128 87.3813 80.5008 87.5093 80.1168C87.7013 79.7328 88.1173 79.4128 88.7573 79.1568C89.3973 78.9008 90.0373 78.7088 90.6773 78.5808C91.3173 78.4528 91.9573 78.2928 92.5973 78.1008C94.0693 77.7168 95.5093 77.3328 96.9173 76.9488C98.3253 76.5008 99.7333 76.0528 101.141 75.6048C101.525 75.4768 102.357 75.1888 103.637 74.7408C104.917 74.2928 106.293 73.8128 107.765 73.3008C109.237 72.7888 110.517 72.3408 111.605 71.9568C112.757 71.5728 113.397 71.3808 113.525 71.3808C114.165 71.3808 114.677 71.5088 115.061 71.7648C115.509 71.9568 115.733 72.4048 115.733 73.1088C115.733 83.7328 115.669 94.3888 115.541 105.077C115.477 115.765 115.445 126.453 115.445 137.141C115.445 137.781 115.701 138.357 116.213 138.869C116.789 139.381 117.365 139.637 117.941 139.637C118.837 139.637 119.733 139.605 120.629 139.541C121.525 139.477 122.421 139.445 123.317 139.445C123.765 139.445 124.117 139.669 124.373 140.117C124.629 140.501 124.757 140.885 124.757 141.269Z"/>
</mask>
<path d="M124.757 141.269C124.757 141.717 124.629 142.133 124.373 142.517C124.117 142.901 123.765 143.093 123.317 143.093C122.485 143.093 121.621 143.061 120.725 142.997C119.829 142.933 118.933 142.869 118.037 142.805C116.565 142.677 115.061 142.613 113.525 142.613C111.989 142.613 110.453 142.613 108.917 142.613C105.269 142.613 101.621 142.709 97.9733 142.901C97.3333 142.965 96.6933 142.997 96.0533 142.997C95.4133 143.061 94.7733 143.093 94.1333 143.093C92.9173 143.093 92.3093 142.453 92.3093 141.173C92.3093 140.661 92.5333 140.245 92.9813 139.925C93.4293 139.605 93.8773 139.445 94.3253 139.445C94.9653 139.445 95.5733 139.477 96.1493 139.541C96.7893 139.605 97.4293 139.637 98.0693 139.637C98.9653 139.637 99.8293 139.541 100.661 139.349C101.493 139.157 101.909 138.453 101.909 137.237C101.909 127.637 101.941 118.037 102.005 108.437C102.069 98.8368 102.101 89.2368 102.101 79.6368C101.653 79.8288 100.789 80.1488 99.5093 80.5968C98.2933 80.9808 96.9813 81.4288 95.5733 81.9408C94.1653 82.3888 92.8853 82.8048 91.7333 83.1888C90.5813 83.5088 89.8773 83.6688 89.6213 83.6688C88.9813 83.6688 88.4373 83.5088 87.9893 83.1888C87.5413 82.8048 87.3173 82.2928 87.3173 81.6528C87.3173 81.0128 87.3813 80.5008 87.5093 80.1168C87.7013 79.7328 88.1173 79.4128 88.7573 79.1568C89.3973 78.9008 90.0373 78.7088 90.6773 78.5808C91.3173 78.4528 91.9573 78.2928 92.5973 78.1008C94.0693 77.7168 95.5093 77.3328 96.9173 76.9488C98.3253 76.5008 99.7333 76.0528 101.141 75.6048C101.525 75.4768 102.357 75.1888 103.637 74.7408C104.917 74.2928 106.293 73.8128 107.765 73.3008C109.237 72.7888 110.517 72.3408 111.605 71.9568C112.757 71.5728 113.397 71.3808 113.525 71.3808C114.165 71.3808 114.677 71.5088 115.061 71.7648C115.509 71.9568 115.733 72.4048 115.733 73.1088C115.733 83.7328 115.669 94.3888 115.541 105.077C115.477 115.765 115.445 126.453 115.445 137.141C115.445 137.781 115.701 138.357 116.213 138.869C116.789 139.381 117.365 139.637 117.941 139.637C118.837 139.637 119.733 139.605 120.629 139.541C121.525 139.477 122.421 139.445 123.317 139.445C123.765 139.445 124.117 139.669 124.373 140.117C124.629 140.501 124.757 140.885 124.757 141.269Z" fill="#F8A400"/>
<path d="M124.373 142.517L132.694 148.064L132.694 148.064L124.373 142.517ZM118.037 142.805L117.171 152.767L117.248 152.774L117.325 152.779L118.037 142.805ZM97.9733 142.901L97.4477 132.915L97.2126 132.927L96.9782 132.95L97.9733 142.901ZM96.0533 142.997V132.997H95.5545L95.0582 133.046L96.0533 142.997ZM96.1493 139.541L95.045 149.48L95.0996 149.486L95.1542 149.491L96.1493 139.541ZM100.661 139.349L98.4127 129.605L98.4127 129.605L100.661 139.349ZM102.005 108.437L112.005 108.503L112.005 108.503L102.005 108.437ZM102.101 79.6368H112.101V64.4715L98.1621 70.4453L102.101 79.6368ZM99.5093 80.5968L102.521 90.1326L102.667 90.0862L102.813 90.0354L99.5093 80.5968ZM95.5733 81.9408L98.6053 91.47L98.7994 91.4083L98.9907 91.3387L95.5733 81.9408ZM91.7333 83.1888L94.4097 92.824L94.6545 92.756L94.8956 92.6756L91.7333 83.1888ZM87.9893 83.1888L81.4814 90.7814L81.8171 91.0691L82.1769 91.3261L87.9893 83.1888ZM87.5093 80.1168L78.565 75.6446L78.2472 76.2803L78.0225 76.9545L87.5093 80.1168ZM90.6773 78.5808L88.7161 68.775L88.7161 68.775L90.6773 78.5808ZM92.5973 78.1008L90.0731 68.4246L89.8975 68.4704L89.7238 68.5225L92.5973 78.1008ZM96.9173 76.9488L99.5485 86.5964L99.7501 86.5414L99.9493 86.478L96.9173 76.9488ZM101.141 75.6048L104.173 85.1341L104.239 85.1133L104.304 85.0916L101.141 75.6048ZM103.637 74.7408L106.941 84.1794L106.941 84.1794L103.637 74.7408ZM107.765 73.3008L104.48 63.8558L104.48 63.8558L107.765 73.3008ZM111.605 71.9568L108.443 62.47L108.36 62.4977L108.277 62.5269L111.605 71.9568ZM115.061 71.7648L109.514 80.0853L110.278 80.5946L111.122 80.9562L115.061 71.7648ZM115.541 105.077L105.542 104.957L105.542 104.987L105.541 105.017L115.541 105.077ZM116.213 138.869L109.142 145.94L109.35 146.148L109.57 146.343L116.213 138.869ZM120.629 139.541L119.917 129.566L119.917 129.566L120.629 139.541ZM124.373 140.117L115.691 145.078L115.862 145.377L116.053 145.664L124.373 140.117ZM114.757 141.269C114.757 139.68 115.249 138.176 116.053 136.97L132.694 148.064C134.01 146.09 134.757 143.753 134.757 141.269H114.757ZM116.053 136.97C116.687 136.019 117.682 134.959 119.129 134.17C120.588 133.374 122.068 133.093 123.317 133.093V153.093C127.228 153.093 130.65 151.129 132.694 148.064L116.053 136.97ZM123.317 133.093C122.741 133.093 122.115 133.071 121.438 133.022L120.013 152.971C121.127 153.051 122.23 153.093 123.317 153.093V133.093ZM121.438 133.022C120.542 132.958 119.646 132.894 118.75 132.83L117.325 152.779C118.221 152.843 119.117 152.907 120.013 152.971L121.438 133.022ZM118.904 132.842C117.132 132.688 115.339 132.613 113.525 132.613V152.613C114.783 152.613 115.998 152.665 117.171 152.767L118.904 132.842ZM113.525 132.613C113.522 132.613 113.519 132.613 113.516 132.613C113.513 132.613 113.51 132.613 113.507 132.613C113.504 132.613 113.501 132.613 113.498 132.613C113.495 132.613 113.492 132.613 113.489 132.613C113.486 132.613 113.483 132.613 113.48 132.613C113.477 132.613 113.474 132.613 113.471 132.613C113.468 132.613 113.465 132.613 113.462 132.613C113.459 132.613 113.456 132.613 113.453 132.613C113.45 132.613 113.447 132.613 113.444 132.613C113.441 132.613 113.438 132.613 113.435 132.613C113.432 132.613 113.429 132.613 113.426 132.613C113.423 132.613 113.42 132.613 113.417 132.613C113.414 132.613 113.411 132.613 113.408 132.613C113.405 132.613 113.402 132.613 113.399 132.613C113.396 132.613 113.393 132.613 113.39 132.613C113.387 132.613 113.384 132.613 113.381 132.613C113.378 132.613 113.375 132.613 113.372 132.613C113.369 132.613 113.366 132.613 113.363 132.613C113.36 132.613 113.357 132.613 113.354 132.613C113.351 132.613 113.348 132.613 113.345 132.613C113.342 132.613 113.339 132.613 113.336 132.613C113.333 132.613 113.33 132.613 113.327 132.613C113.324 132.613 113.321 132.613 113.318 132.613C113.315 132.613 113.312 132.613 113.309 132.613C113.306 132.613 113.303 132.613 113.3 132.613C113.297 132.613 113.294 132.613 113.291 132.613C113.288 132.613 113.285 132.613 113.282 132.613C113.279 132.613 113.276 132.613 113.273 132.613C113.27 132.613 113.267 132.613 113.264 132.613C113.261 132.613 113.258 132.613 113.255 132.613C113.252 132.613 113.249 132.613 113.246 132.613C113.243 132.613 113.24 132.613 113.237 132.613C113.234 132.613 113.231 132.613 113.228 132.613C113.225 132.613 113.222 132.613 113.219 132.613C113.216 132.613 113.213 132.613 113.21 132.613C113.207 132.613 113.204 132.613 113.201 132.613C113.198 132.613 113.195 132.613 113.192 132.613C113.189 132.613 113.186 132.613 113.183 132.613C113.18 132.613 113.177 132.613 113.174 132.613C113.171 132.613 113.168 132.613 113.165 132.613C113.162 132.613 113.159 132.613 113.156 132.613C113.153 132.613 113.15 132.613 113.147 132.613C113.144 132.613 113.141 132.613 113.138 132.613C113.135 132.613 113.132 132.613 113.129 132.613C113.126 132.613 113.123 132.613 113.12 132.613C113.117 132.613 113.114 132.613 113.111 132.613C113.108 132.613 113.105 132.613 113.102 132.613C113.099 132.613 113.096 132.613 113.093 132.613C113.09 132.613 113.087 132.613 113.084 132.613C113.081 132.613 113.078 132.613 113.075 132.613C113.072 132.613 113.069 132.613 113.066 132.613C113.063 132.613 113.06 132.613 113.057 132.613C113.054 132.613 113.051 132.613 113.048 132.613C113.045 132.613 113.042 132.613 113.039 132.613C113.036 132.613 113.033 132.613 113.03 132.613C113.027 132.613 113.024 132.613 113.021 132.613C113.018 132.613 113.015 132.613 113.012 132.613C113.009 132.613 113.006 132.613 113.003 132.613C113 132.613 112.997 132.613 112.994 132.613C112.991 132.613 112.988 132.613 112.985 132.613C112.982 132.613 112.979 132.613 112.976 132.613C112.973 132.613 112.97 132.613 112.967 132.613C112.964 132.613 112.961 132.613 112.958 132.613C112.955 132.613 112.952 132.613 112.949 132.613C112.946 132.613 112.943 132.613 112.94 132.613C112.937 132.613 112.934 132.613 112.931 132.613C112.928 132.613 112.925 132.613 112.922 132.613C112.919 132.613 112.916 132.613 112.913 132.613C112.91 132.613 112.907 132.613 112.904 132.613C112.901 132.613 112.898 132.613 112.895 132.613C112.892 132.613 112.889 132.613 112.886 132.613C112.883 132.613 112.88 132.613 112.877 132.613C112.874 132.613 112.871 132.613 112.868 132.613C112.865 132.613 112.862 132.613 112.859 132.613C112.856 132.613 112.853 132.613 112.85 132.613C112.847 132.613 112.844 132.613 112.841 132.613C112.838 132.613 112.835 132.613 112.832 132.613C112.829 132.613 112.826 132.613 112.823 132.613C112.82 132.613 112.817 132.613 112.814 132.613C112.811 132.613 112.808 132.613 112.805 132.613C112.802 132.613 112.799 132.613 112.796 132.613C112.793 132.613 112.79 132.613 112.787 132.613C112.784 132.613 112.781 132.613 112.778 132.613C112.775 132.613 112.772 132.613 112.769 132.613C112.766 132.613 112.763 132.613 112.76 132.613C112.757 132.613 112.754 132.613 112.751 132.613C112.748 132.613 112.745 132.613 112.742 132.613C112.739 132.613 112.736 132.613 112.733 132.613C112.73 132.613 112.727 132.613 112.724 132.613C112.721 132.613 112.718 132.613 112.715 132.613C112.712 132.613 112.709 132.613 112.706 132.613C112.703 132.613 112.7 132.613 112.697 132.613C112.694 132.613 112.691 132.613 112.688 132.613C112.685 132.613 112.682 132.613 112.679 132.613C112.676 132.613 112.673 132.613 112.67 132.613C112.667 132.613 112.664 132.613 112.661 132.613C112.658 132.613 112.655 132.613 112.652 132.613C112.649 132.613 112.646 132.613 112.643 132.613C112.64 132.613 112.637 132.613 112.634 132.613C112.631 132.613 112.628 132.613 112.625 132.613C112.622 132.613 112.619 132.613 112.616 132.613C112.613 132.613 112.61 132.613 112.607 132.613C112.604 132.613 112.601 132.613 112.598 132.613C112.595 132.613 112.592 132.613 112.589 132.613C112.586 132.613 112.583 132.613 112.58 132.613C112.577 132.613 112.574 132.613 112.571 132.613C112.568 132.613 112.565 132.613 112.562 132.613C112.559 132.613 112.556 132.613 112.553 132.613C112.55 132.613 112.547 132.613 112.544 132.613C112.541 132.613 112.538 132.613 112.535 132.613C112.532 132.613 112.529 132.613 112.526 132.613C112.523 132.613 112.52 132.613 112.517 132.613C112.514 132.613 112.511 132.613 112.508 132.613C112.505 132.613 112.502 132.613 112.499 132.613C112.496 132.613 112.493 132.613 112.49 132.613C112.487 132.613 112.484 132.613 112.481 132.613C112.478 132.613 112.475 132.613 112.472 132.613C112.469 132.613 112.466 132.613 112.463 132.613C112.46 132.613 112.457 132.613 112.454 132.613C112.451 132.613 112.448 132.613 112.445 132.613C112.442 132.613 112.439 132.613 112.436 132.613C112.433 132.613 112.43 132.613 112.427 132.613C112.424 132.613 112.421 132.613 112.418 132.613C112.415 132.613 112.412 132.613 112.409 132.613C112.406 132.613 112.403 132.613 112.4 132.613C112.397 132.613 112.394 132.613 112.391 132.613C112.388 132.613 112.385 132.613 112.382 132.613C112.379 132.613 112.376 132.613 112.373 132.613C112.37 132.613 112.367 132.613 112.364 132.613C112.361 132.613 112.358 132.613 112.355 132.613C112.352 132.613 112.349 132.613 112.346 132.613C112.343 132.613 112.34 132.613 112.337 132.613C112.334 132.613 112.331 132.613 112.328 132.613C112.325 132.613 112.322 132.613 112.319 132.613C112.316 132.613 112.313 132.613 112.31 132.613C112.307 132.613 112.304 132.613 112.301 132.613C112.298 132.613 112.295 132.613 112.292 132.613C112.289 132.613 112.286 132.613 112.283 132.613C112.28 132.613 112.277 132.613 112.274 132.613C112.271 132.613 112.268 132.613 112.265 132.613C112.262 132.613 112.259 132.613 112.256 132.613C112.253 132.613 112.25 132.613 112.247 132.613C112.244 132.613 112.241 132.613 112.238 132.613C112.235 132.613 112.232 132.613 112.229 132.613C112.226 132.613 112.223 132.613 112.22 132.613C112.217 132.613 112.214 132.613 112.211 132.613C112.208 132.613 112.205 132.613 112.202 132.613C112.199 132.613 112.196 132.613 112.193 132.613C112.19 132.613 112.187 132.613 112.184 132.613C112.181 132.613 112.178 132.613 112.175 132.613C112.172 132.613 112.169 132.613 112.166 132.613C112.163 132.613 112.16 132.613 112.157 132.613C112.154 132.613 112.151 132.613 112.148 132.613C112.145 132.613 112.142 132.613 112.139 132.613C112.136 132.613 112.133 132.613 112.13 132.613C112.127 132.613 112.124 132.613 112.121 132.613C112.118 132.613 112.115 132.613 112.112 132.613C112.109 132.613 112.106 132.613 112.103 132.613C112.1 132.613 112.097 132.613 112.094 132.613C112.091 132.613 112.088 132.613 112.085 132.613C112.082 132.613 112.079 132.613 112.076 132.613C112.073 132.613 112.07 132.613 112.067 132.613C112.064 132.613 112.061 132.613 112.058 132.613C112.055 132.613 112.052 132.613 112.049 132.613C112.046 132.613 112.043 132.613 112.04 132.613C112.037 132.613 112.034 132.613 112.031 132.613C112.028 132.613 112.025 132.613 112.022 132.613C112.019 132.613 112.016 132.613 112.013 132.613C112.01 132.613 112.007 132.613 112.004 132.613C112.001 132.613 111.998 132.613 111.995 132.613C111.992 132.613 111.989 132.613 111.986 132.613C111.983 132.613 111.98 132.613 111.977 132.613C111.974 132.613 111.971 132.613 111.968 132.613C111.965 132.613 111.962 132.613 111.959 132.613C111.956 132.613 111.953 132.613 111.95 132.613C111.947 132.613 111.944 132.613 111.941 132.613C111.938 132.613 111.935 132.613 111.932 132.613C111.929 132.613 111.926 132.613 111.923 132.613C111.92 132.613 111.917 132.613 111.914 132.613C111.911 132.613 111.908 132.613 111.905 132.613C111.902 132.613 111.899 132.613 111.896 132.613C111.893 132.613 111.89 132.613 111.887 132.613C111.884 132.613 111.881 132.613 111.878 132.613C111.875 132.613 111.872 132.613 111.869 132.613C111.866 132.613 111.863 132.613 111.86 132.613C111.857 132.613 111.854 132.613 111.851 132.613C111.848 132.613 111.845 132.613 111.842 132.613C111.839 132.613 111.836 132.613 111.833 132.613C111.83 132.613 111.827 132.613 111.824 132.613C111.821 132.613 111.818 132.613 111.815 132.613C111.812 132.613 111.809 132.613 111.806 132.613C111.803 132.613 111.8 132.613 111.797 132.613C111.794 132.613 111.791 132.613 111.788 132.613C111.785 132.613 111.782 132.613 111.779 132.613C111.776 132.613 111.773 132.613 111.77 132.613C111.767 132.613 111.764 132.613 111.761 132.613C111.758 132.613 111.755 132.613 111.752 132.613C111.749 132.613 111.746 132.613 111.743 132.613C111.74 132.613 111.737 132.613 111.734 132.613C111.731 132.613 111.728 132.613 111.725 132.613C111.722 132.613 111.719 132.613 111.716 132.613C111.713 132.613 111.71 132.613 111.707 132.613C111.704 132.613 111.701 132.613 111.698 132.613C111.695 132.613 111.692 132.613 111.689 132.613C111.686 132.613 111.683 132.613 111.68 132.613C111.677 132.613 111.674 132.613 111.671 132.613C111.668 132.613 111.665 132.613 111.662 132.613C111.659 132.613 111.656 132.613 111.653 132.613C111.65 132.613 111.647 132.613 111.644 132.613C111.641 132.613 111.638 132.613 111.635 132.613C111.632 132.613 111.629 132.613 111.626 132.613C111.623 132.613 111.62 132.613 111.617 132.613C111.614 132.613 111.611 132.613 111.608 132.613C111.605 132.613 111.602 132.613 111.599 132.613C111.596 132.613 111.593 132.613 111.59 132.613C111.587 132.613 111.584 132.613 111.581 132.613C111.578 132.613 111.575 132.613 111.572 132.613C111.569 132.613 111.566 132.613 111.563 132.613C111.56 132.613 111.557 132.613 111.554 132.613C111.551 132.613 111.548 132.613 111.545 132.613C111.542 132.613 111.539 132.613 111.536 132.613C111.533 132.613 111.53 132.613 111.527 132.613C111.524 132.613 111.521 132.613 111.518 132.613C111.515 132.613 111.512 132.613 111.509 132.613C111.506 132.613 111.503 132.613 111.5 132.613C111.497 132.613 111.494 132.613 111.491 132.613C111.488 132.613 111.485 132.613 111.482 132.613C111.479 132.613 111.476 132.613 111.473 132.613C111.47 132.613 111.467 132.613 111.464 132.613C111.461 132.613 111.458 132.613 111.455 132.613C111.452 132.613 111.449 132.613 111.446 132.613C111.443 132.613 111.44 132.613 111.437 132.613C111.434 132.613 111.431 132.613 111.428 132.613C111.425 132.613 111.422 132.613 111.419 132.613C111.416 132.613 111.413 132.613 111.41 132.613C111.407 132.613 111.404 132.613 111.401 132.613C111.398 132.613 111.395 132.613 111.392 132.613C111.389 132.613 111.386 132.613 111.383 132.613C111.38 132.613 111.377 132.613 111.374 132.613C111.371 132.613 111.368 132.613 111.365 132.613C111.362 132.613 111.359 132.613 111.356 132.613C111.353 132.613 111.35 132.613 111.347 132.613C111.344 132.613 111.341 132.613 111.338 132.613C111.335 132.613 111.332 132.613 111.329 132.613C111.326 132.613 111.323 132.613 111.32 132.613C111.317 132.613 111.314 132.613 111.311 132.613C111.308 132.613 111.305 132.613 111.302 132.613C111.299 132.613 111.296 132.613 111.293 132.613C111.29 132.613 111.287 132.613 111.284 132.613C111.281 132.613 111.278 132.613 111.275 132.613C111.272 132.613 111.269 132.613 111.266 132.613C111.263 132.613 111.26 132.613 111.257 132.613C111.254 132.613 111.251 132.613 111.248 132.613C111.245 132.613 111.242 132.613 111.239 132.613C111.236 132.613 111.233 132.613 111.23 132.613C111.227 132.613 111.224 132.613 111.221 132.613C111.218 132.613 111.215 132.613 111.212 132.613C111.209 132.613 111.206 132.613 111.203 132.613C111.2 132.613 111.197 132.613 111.194 132.613C111.191 132.613 111.188 132.613 111.185 132.613C111.182 132.613 111.179 132.613 111.176 132.613C111.173 132.613 111.17 132.613 111.167 132.613C111.164 132.613 111.161 132.613 111.158 132.613C111.155 132.613 111.152 132.613 111.149 132.613C111.146 132.613 111.143 132.613 111.14 132.613C111.137 132.613 111.134 132.613 111.131 132.613C111.128 132.613 111.125 132.613 111.122 132.613C111.119 132.613 111.116 132.613 111.113 132.613C111.11 132.613 111.107 132.613 111.104 132.613C111.101 132.613 111.098 132.613 111.095 132.613C111.092 132.613 111.089 132.613 111.086 132.613C111.083 132.613 111.08 132.613 111.077 132.613C111.074 132.613 111.071 132.613 111.068 132.613C111.065 132.613 111.062 132.613 111.059 132.613C111.056 132.613 111.053 132.613 111.05 132.613C111.047 132.613 111.044 132.613 111.041 132.613C111.038 132.613 111.035 132.613 111.032 132.613C111.029 132.613 111.026 132.613 111.023 132.613C111.02 132.613 111.017 132.613 111.014 132.613C111.011 132.613 111.008 132.613 111.005 132.613C111.002 132.613 110.999 132.613 110.996 132.613C110.993 132.613 110.99 132.613 110.987 132.613C110.984 132.613 110.981 132.613 110.978 132.613C110.975 132.613 110.972 132.613 110.969 132.613C110.966 132.613 110.963 132.613 110.96 132.613C110.957 132.613 110.954 132.613 110.951 132.613C110.948 132.613 110.945 132.613 110.942 132.613C110.939 132.613 110.936 132.613 110.933 132.613C110.93 132.613 110.927 132.613 110.924 132.613C110.921 132.613 110.918 132.613 110.915 132.613C110.912 132.613 110.909 132.613 110.906 132.613C110.903 132.613 110.9 132.613 110.897 132.613C110.894 132.613 110.891 132.613 110.888 132.613C110.885 132.613 110.882 132.613 110.879 132.613C110.876 132.613 110.873 132.613 110.87 132.613C110.867 132.613 110.864 132.613 110.861 132.613C110.858 132.613 110.855 132.613 110.852 132.613C110.849 132.613 110.846 132.613 110.843 132.613C110.84 132.613 110.837 132.613 110.834 132.613C110.831 132.613 110.828 132.613 110.825 132.613C110.822 132.613 110.819 132.613 110.816 132.613C110.813 132.613 110.81 132.613 110.807 132.613C110.804 132.613 110.801 132.613 110.798 132.613C110.795 132.613 110.792 132.613 110.789 132.613C110.786 132.613 110.783 132.613 110.78 132.613C110.777 132.613 110.774 132.613 110.771 132.613C110.768 132.613 110.765 132.613 110.762 132.613C110.759 132.613 110.756 132.613 110.753 132.613C110.75 132.613 110.747 132.613 110.744 132.613C110.741 132.613 110.738 132.613 110.735 132.613C110.732 132.613 110.729 132.613 110.726 132.613C110.723 132.613 110.72 132.613 110.717 132.613C110.714 132.613 110.711 132.613 110.708 132.613C110.705 132.613 110.702 132.613 110.699 132.613C110.696 132.613 110.693 132.613 110.69 132.613C110.687 132.613 110.684 132.613 110.681 132.613C110.678 132.613 110.675 132.613 110.672 132.613C110.669 132.613 110.666 132.613 110.663 132.613C110.66 132.613 110.657 132.613 110.654 132.613C110.651 132.613 110.648 132.613 110.645 132.613C110.642 132.613 110.639 132.613 110.636 132.613C110.633 132.613 110.63 132.613 110.627 132.613C110.624 132.613 110.621 132.613 110.618 132.613C110.615 132.613 110.612 132.613 110.609 132.613C110.606 132.613 110.603 132.613 110.6 132.613C110.597 132.613 110.594 132.613 110.591 132.613C110.588 132.613 110.585 132.613 110.582 132.613C110.579 132.613 110.576 132.613 110.573 132.613C110.57 132.613 110.567 132.613 110.564 132.613C110.561 132.613 110.558 132.613 110.555 132.613C110.552 132.613 110.549 132.613 110.546 132.613C110.543 132.613 110.54 132.613 110.537 132.613C110.534 132.613 110.531 132.613 110.528 132.613C110.525 132.613 110.522 132.613 110.519 132.613C110.516 132.613 110.513 132.613 110.51 132.613C110.507 132.613 110.504 132.613 110.501 132.613C110.498 132.613 110.495 132.613 110.492 132.613C110.489 132.613 110.486 132.613 110.483 132.613C110.48 132.613 110.477 132.613 110.474 132.613C110.471 132.613 110.468 132.613 110.465 132.613C110.462 132.613 110.459 132.613 110.456 132.613C110.453 132.613 110.45 132.613 110.447 132.613C110.444 132.613 110.441 132.613 110.438 132.613C110.435 132.613 110.432 132.613 110.429 132.613C110.426 132.613 110.423 132.613 110.42 132.613C110.417 132.613 110.414 132.613 110.411 132.613C110.408 132.613 110.405 132.613 110.402 132.613C110.399 132.613 110.396 132.613 110.393 132.613C110.39 132.613 110.387 132.613 110.384 132.613C110.381 132.613 110.378 132.613 110.375 132.613C110.372 132.613 110.369 132.613 110.366 132.613C110.363 132.613 110.36 132.613 110.357 132.613C110.354 132.613 110.351 132.613 110.348 132.613C110.345 132.613 110.342 132.613 110.339 132.613C110.336 132.613 110.333 132.613 110.33 132.613C110.327 132.613 110.324 132.613 110.321 132.613C110.318 132.613 110.315 132.613 110.312 132.613C110.309 132.613 110.306 132.613 110.303 132.613C110.3 132.613 110.297 132.613 110.294 132.613C110.291 132.613 110.288 132.613 110.285 132.613C110.282 132.613 110.279 132.613 110.276 132.613C110.273 132.613 110.27 132.613 110.267 132.613C110.264 132.613 110.261 132.613 110.258 132.613C110.255 132.613 110.252 132.613 110.249 132.613C110.246 132.613 110.243 132.613 110.24 132.613C110.237 132.613 110.234 132.613 110.231 132.613C110.228 132.613 110.225 132.613 110.222 132.613C110.219 132.613 110.216 132.613 110.213 132.613C110.21 132.613 110.207 132.613 110.204 132.613C110.201 132.613 110.198 132.613 110.195 132.613C110.192 132.613 110.189 132.613 110.186 132.613C110.183 132.613 110.18 132.613 110.177 132.613C110.174 132.613 110.171 132.613 110.168 132.613C110.165 132.613 110.162 132.613 110.159 132.613C110.156 132.613 110.153 132.613 110.15 132.613C110.147 132.613 110.144 132.613 110.141 132.613C110.138 132.613 110.135 132.613 110.132 132.613C110.129 132.613 110.126 132.613 110.123 132.613C110.12 132.613 110.117 132.613 110.114 132.613C110.111 132.613 110.108 132.613 110.105 132.613C110.102 132.613 110.099 132.613 110.096 132.613C110.093 132.613 110.09 132.613 110.087 132.613C110.084 132.613 110.081 132.613 110.078 132.613C110.075 132.613 110.072 132.613 110.069 132.613C110.066 132.613 110.063 132.613 110.06 132.613C110.057 132.613 110.054 132.613 110.051 132.613C110.048 132.613 110.045 132.613 110.042 132.613C110.039 132.613 110.036 132.613 110.033 132.613C110.03 132.613 110.027 132.613 110.024 132.613C110.021 132.613 110.018 132.613 110.015 132.613C110.012 132.613 110.009 132.613 110.006 132.613C110.003 132.613 110 132.613 109.997 132.613C109.994 132.613 109.991 132.613 109.988 132.613C109.985 132.613 109.982 132.613 109.979 132.613C109.976 132.613 109.973 132.613 109.97 132.613C109.967 132.613 109.964 132.613 109.961 132.613C109.958 132.613 109.955 132.613 109.952 132.613C109.949 132.613 109.946 132.613 109.943 132.613C109.94 132.613 109.937 132.613 109.934 132.613C109.931 132.613 109.928 132.613 109.925 132.613C109.922 132.613 109.919 132.613 109.916 132.613C109.913 132.613 109.91 132.613 109.907 132.613C109.904 132.613 109.901 132.613 109.898 132.613C109.895 132.613 109.892 132.613 109.889 132.613C109.886 132.613 109.883 132.613 109.88 132.613C109.877 132.613 109.874 132.613 109.871 132.613C109.868 132.613 109.865 132.613 109.862 132.613C109.859 132.613 109.856 132.613 109.853 132.613C109.85 132.613 109.847 132.613 109.844 132.613C109.841 132.613 109.838 132.613 109.835 132.613C109.832 132.613 109.829 132.613 109.826 132.613C109.823 132.613 109.82 132.613 109.817 132.613C109.814 132.613 109.811 132.613 109.808 132.613C109.805 132.613 109.802 132.613 109.799 132.613C109.796 132.613 109.793 132.613 109.79 132.613C109.787 132.613 109.784 132.613 109.781 132.613C109.778 132.613 109.775 132.613 109.772 132.613C109.769 132.613 109.766 132.613 109.763 132.613C109.76 132.613 109.757 132.613 109.754 132.613C109.751 132.613 109.748 132.613 109.745 132.613C109.742 132.613 109.739 132.613 109.736 132.613C109.733 132.613 109.73 132.613 109.727 132.613C109.724 132.613 109.721 132.613 109.718 132.613C109.715 132.613 109.712 132.613 109.709 132.613C109.706 132.613 109.703 132.613 109.7 132.613C109.697 132.613 109.694 132.613 109.691 132.613C109.688 132.613 109.685 132.613 109.682 132.613C109.679 132.613 109.676 132.613 109.673 132.613C109.67 132.613 109.667 132.613 109.664 132.613C109.661 132.613 109.658 132.613 109.655 132.613C109.652 132.613 109.649 132.613 109.646 132.613C109.643 132.613 109.64 132.613 109.637 132.613C109.634 132.613 109.631 132.613 109.628 132.613C109.625 132.613 109.622 132.613 109.619 132.613C109.616 132.613 109.613 132.613 109.61 132.613C109.607 132.613 109.604 132.613 109.601 132.613C109.598 132.613 109.595 132.613 109.592 132.613C109.589 132.613 109.586 132.613 109.583 132.613C109.58 132.613 109.577 132.613 109.574 132.613C109.571 132.613 109.568 132.613 109.565 132.613C109.562 132.613 109.559 132.613 109.556 132.613C109.553 132.613 109.55 132.613 109.547 132.613C109.544 132.613 109.541 132.613 109.538 132.613C109.535 132.613 109.532 132.613 109.529 132.613C109.526 132.613 109.523 132.613 109.52 132.613C109.517 132.613 109.514 132.613 109.511 132.613C109.508 132.613 109.505 132.613 109.502 132.613C109.499 132.613 109.496 132.613 109.493 132.613C109.49 132.613 109.487 132.613 109.484 132.613C109.481 132.613 109.478 132.613 109.475 132.613C109.472 132.613 109.469 132.613 109.466 132.613C109.463 132.613 109.46 132.613 109.457 132.613C109.454 132.613 109.451 132.613 109.448 132.613C109.445 132.613 109.442 132.613 109.439 132.613C109.436 132.613 109.433 132.613 109.43 132.613C109.427 132.613 109.424 132.613 109.421 132.613C109.418 132.613 109.415 132.613 109.412 132.613C109.409 132.613 109.406 132.613 109.403 132.613C109.4 132.613 109.397 132.613 109.394 132.613C109.391 132.613 109.388 132.613 109.385 132.613C109.382 132.613 109.379 132.613 109.376 132.613C109.373 132.613 109.37 132.613 109.367 132.613C109.364 132.613 109.361 132.613 109.358 132.613C109.355 132.613 109.352 132.613 109.349 132.613C109.346 132.613 109.343 132.613 109.34 132.613C109.337 132.613 109.334 132.613 109.331 132.613C109.328 132.613 109.325 132.613 109.322 132.613C109.319 132.613 109.316 132.613 109.313 132.613C109.31 132.613 109.307 132.613 109.304 132.613C109.301 132.613 109.298 132.613 109.295 132.613C109.292 132.613 109.289 132.613 109.286 132.613C109.283 132.613 109.28 132.613 109.277 132.613C109.274 132.613 109.271 132.613 109.268 132.613C109.265 132.613 109.262 132.613 109.259 132.613C109.256 132.613 109.253 132.613 109.25 132.613C109.247 132.613 109.244 132.613 109.241 132.613C109.238 132.613 109.235 132.613 109.232 132.613C109.229 132.613 109.226 132.613 109.223 132.613C109.22 132.613 109.217 132.613 109.214 132.613C109.211 132.613 109.208 132.613 109.205 132.613C109.202 132.613 109.199 132.613 109.196 132.613C109.193 132.613 109.19 132.613 109.187 132.613C109.184 132.613 109.181 132.613 109.178 132.613C109.175 132.613 109.172 132.613 109.169 132.613C109.166 132.613 109.163 132.613 109.16 132.613C109.157 132.613 109.154 132.613 109.151 132.613C109.148 132.613 109.145 132.613 109.142 132.613C109.139 132.613 109.136 132.613 109.133 132.613C109.13 132.613 109.127 132.613 109.124 132.613C109.121 132.613 109.118 132.613 109.115 132.613C109.112 132.613 109.109 132.613 109.106 132.613C109.103 132.613 109.1 132.613 109.097 132.613C109.094 132.613 109.091 132.613 109.088 132.613C109.085 132.613 109.082 132.613 109.079 132.613C109.076 132.613 109.073 132.613 109.07 132.613C109.067 132.613 109.064 132.613 109.061 132.613C109.058 132.613 109.055 132.613 109.052 132.613C109.049 132.613 109.046 132.613 109.043 132.613C109.04 132.613 109.037 132.613 109.034 132.613C109.031 132.613 109.028 132.613 109.025 132.613C109.022 132.613 109.019 132.613 109.016 132.613C109.013 132.613 109.01 132.613 109.007 132.613C109.004 132.613 109.001 132.613 108.998 132.613C108.995 132.613 108.992 132.613 108.989 132.613C108.986 132.613 108.983 132.613 108.98 132.613C108.977 132.613 108.974 132.613 108.971 132.613C108.968 132.613 108.965 132.613 108.962 132.613C108.959 132.613 108.956 132.613 108.953 132.613C108.95 132.613 108.947 132.613 108.944 132.613C108.941 132.613 108.938 132.613 108.935 132.613C108.932 132.613 108.929 132.613 108.926 132.613C108.923 132.613 108.92 132.613 108.917 132.613V152.613C108.92 152.613 108.923 152.613 108.926 152.613C108.929 152.613 108.932 152.613 108.935 152.613C108.938 152.613 108.941 152.613 108.944 152.613C108.947 152.613 108.95 152.613 108.953 152.613C108.956 152.613 108.959 152.613 108.962 152.613C108.965 152.613 108.968 152.613 108.971 152.613C108.974 152.613 108.977 152.613 108.98 152.613C108.983 152.613 108.986 152.613 108.989 152.613C108.992 152.613 108.995 152.613 108.998 152.613C109.001 152.613 109.004 152.613 109.007 152.613C109.01 152.613 109.013 152.613 109.016 152.613C109.019 152.613 109.022 152.613 109.025 152.613C109.028 152.613 109.031 152.613 109.034 152.613C109.037 152.613 109.04 152.613 109.043 152.613C109.046 152.613 109.049 152.613 109.052 152.613C109.055 152.613 109.058 152.613 109.061 152.613C109.064 152.613 109.067 152.613 109.07 152.613C109.073 152.613 109.076 152.613 109.079 152.613C109.082 152.613 109.085 152.613 109.088 152.613C109.091 152.613 109.094 152.613 109.097 152.613C109.1 152.613 109.103 152.613 109.106 152.613C109.109 152.613 109.112 152.613 109.115 152.613C109.118 152.613 109.121 152.613 109.124 152.613C109.127 152.613 109.13 152.613 109.133 152.613C109.136 152.613 109.139 152.613 109.142 152.613C109.145 152.613 109.148 152.613 109.151 152.613C109.154 152.613 109.157 152.613 109.16 152.613C109.163 152.613 109.166 152.613 109.169 152.613C109.172 152.613 109.175 152.613 109.178 152.613C109.181 152.613 109.184 152.613 109.187 152.613C109.19 152.613 109.193 152.613 109.196 152.613C109.199 152.613 109.202 152.613 109.205 152.613C109.208 152.613 109.211 152.613 109.214 152.613C109.217 152.613 109.22 152.613 109.223 152.613C109.226 152.613 109.229 152.613 109.232 152.613C109.235 152.613 109.238 152.613 109.241 152.613C109.244 152.613 109.247 152.613 109.25 152.613C109.253 152.613 109.256 152.613 109.259 152.613C109.262 152.613 109.265 152.613 109.268 152.613C109.271 152.613 109.274 152.613 109.277 152.613C109.28 152.613 109.283 152.613 109.286 152.613C109.289 152.613 109.292 152.613 109.295 152.613C109.298 152.613 109.301 152.613 109.304 152.613C109.307 152.613 109.31 152.613 109.313 152.613C109.316 152.613 109.319 152.613 109.322 152.613C109.325 152.613 109.328 152.613 109.331 152.613C109.334 152.613 109.337 152.613 109.34 152.613C109.343 152.613 109.346 152.613 109.349 152.613C109.352 152.613 109.355 152.613 109.358 152.613C109.361 152.613 109.364 152.613 109.367 152.613C109.37 152.613 109.373 152.613 109.376 152.613C109.379 152.613 109.382 152.613 109.385 152.613C109.388 152.613 109.391 152.613 109.394 152.613C109.397 152.613 109.4 152.613 109.403 152.613C109.406 152.613 109.409 152.613 109.412 152.613C109.415 152.613 109.418 152.613 109.421 152.613C109.424 152.613 109.427 152.613 109.43 152.613C109.433 152.613 109.436 152.613 109.439 152.613C109.442 152.613 109.445 152.613 109.448 152.613C109.451 152.613 109.454 152.613 109.457 152.613C109.46 152.613 109.463 152.613 109.466 152.613C109.469 152.613 109.472 152.613 109.475 152.613C109.478 152.613 109.481 152.613 109.484 152.613C109.487 152.613 109.49 152.613 109.493 152.613C109.496 152.613 109.499 152.613 109.502 152.613C109.505 152.613 109.508 152.613 109.511 152.613C109.514 152.613 109.517 152.613 109.52 152.613C109.523 152.613 109.526 152.613 109.529 152.613C109.532 152.613 109.535 152.613 109.538 152.613C109.541 152.613 109.544 152.613 109.547 152.613C109.55 152.613 109.553 152.613 109.556 152.613C109.559 152.613 109.562 152.613 109.565 152.613C109.568 152.613 109.571 152.613 109.574 152.613C109.577 152.613 109.58 152.613 109.583 152.613C109.586 152.613 109.589 152.613 109.592 152.613C109.595 152.613 109.598 152.613 109.601 152.613C109.604 152.613 109.607 152.613 109.61 152.613C109.613 152.613 109.616 152.613 109.619 152.613C109.622 152.613 109.625 152.613 109.628 152.613C109.631 152.613 109.634 152.613 109.637 152.613C109.64 152.613 109.643 152.613 109.646 152.613C109.649 152.613 109.652 152.613 109.655 152.613C109.658 152.613 109.661 152.613 109.664 152.613C109.667 152.613 109.67 152.613 109.673 152.613C109.676 152.613 109.679 152.613 109.682 152.613C109.685 152.613 109.688 152.613 109.691 152.613C109.694 152.613 109.697 152.613 109.7 152.613C109.703 152.613 109.706 152.613 109.709 152.613C109.712 152.613 109.715 152.613 109.718 152.613C109.721 152.613 109.724 152.613 109.727 152.613C109.73 152.613 109.733 152.613 109.736 152.613C109.739 152.613 109.742 152.613 109.745 152.613C109.748 152.613 109.751 152.613 109.754 152.613C109.757 152.613 109.76 152.613 109.763 152.613C109.766 152.613 109.769 152.613 109.772 152.613C109.775 152.613 109.778 152.613 109.781 152.613C109.784 152.613 109.787 152.613 109.79 152.613C109.793 152.613 109.796 152.613 109.799 152.613C109.802 152.613 109.805 152.613 109.808 152.613C109.811 152.613 109.814 152.613 109.817 152.613C109.82 152.613 109.823 152.613 109.826 152.613C109.829 152.613 109.832 152.613 109.835 152.613C109.838 152.613 109.841 152.613 109.844 152.613C109.847 152.613 109.85 152.613 109.853 152.613C109.856 152.613 109.859 152.613 109.862 152.613C109.865 152.613 109.868 152.613 109.871 152.613C109.874 152.613 109.877 152.613 109.88 152.613C109.883 152.613 109.886 152.613 109.889 152.613C109.892 152.613 109.895 152.613 109.898 152.613C109.901 152.613 109.904 152.613 109.907 152.613C109.91 152.613 109.913 152.613 109.916 152.613C109.919 152.613 109.922 152.613 109.925 152.613C109.928 152.613 109.931 152.613 109.934 152.613C109.937 152.613 109.94 152.613 109.943 152.613C109.946 152.613 109.949 152.613 109.952 152.613C109.955 152.613 109.958 152.613 109.961 152.613C109.964 152.613 109.967 152.613 109.97 152.613C109.973 152.613 109.976 152.613 109.979 152.613C109.982 152.613 109.985 152.613 109.988 152.613C109.991 152.613 109.994 152.613 109.997 152.613C110 152.613 110.003 152.613 110.006 152.613C110.009 152.613 110.012 152.613 110.015 152.613C110.018 152.613 110.021 152.613 110.024 152.613C110.027 152.613 110.03 152.613 110.033 152.613C110.036 152.613 110.039 152.613 110.042 152.613C110.045 152.613 110.048 152.613 110.051 152.613C110.054 152.613 110.057 152.613 110.06 152.613C110.063 152.613 110.066 152.613 110.069 152.613C110.072 152.613 110.075 152.613 110.078 152.613C110.081 152.613 110.084 152.613 110.087 152.613C110.09 152.613 110.093 152.613 110.096 152.613C110.099 152.613 110.102 152.613 110.105 152.613C110.108 152.613 110.111 152.613 110.114 152.613C110.117 152.613 110.12 152.613 110.123 152.613C110.126 152.613 110.129 152.613 110.132 152.613C110.135 152.613 110.138 152.613 110.141 152.613C110.144 152.613 110.147 152.613 110.15 152.613C110.153 152.613 110.156 152.613 110.159 152.613C110.162 152.613 110.165 152.613 110.168 152.613C110.171 152.613 110.174 152.613 110.177 152.613C110.18 152.613 110.183 152.613 110.186 152.613C110.189 152.613 110.192 152.613 110.195 152.613C110.198 152.613 110.201 152.613 110.204 152.613C110.207 152.613 110.21 152.613 110.213 152.613C110.216 152.613 110.219 152.613 110.222 152.613C110.225 152.613 110.228 152.613 110.231 152.613C110.234 152.613 110.237 152.613 110.24 152.613C110.243 152.613 110.246 152.613 110.249 152.613C110.252 152.613 110.255 152.613 110.258 152.613C110.261 152.613 110.264 152.613 110.267 152.613C110.27 152.613 110.273 152.613 110.276 152.613C110.279 152.613 110.282 152.613 110.285 152.613C110.288 152.613 110.291 152.613 110.294 152.613C110.297 152.613 110.3 152.613 110.303 152.613C110.306 152.613 110.309 152.613 110.312 152.613C110.315 152.613 110.318 152.613 110.321 152.613C110.324 152.613 110.327 152.613 110.33 152.613C110.333 152.613 110.336 152.613 110.339 152.613C110.342 152.613 110.345 152.613 110.348 152.613C110.351 152.613 110.354 152.613 110.357 152.613C110.36 152.613 110.363 152.613 110.366 152.613C110.369 152.613 110.372 152.613 110.375 152.613C110.378 152.613 110.381 152.613 110.384 152.613C110.387 152.613 110.39 152.613 110.393 152.613C110.396 152.613 110.399 152.613 110.402 152.613C110.405 152.613 110.408 152.613 110.411 152.613C110.414 152.613 110.417 152.613 110.42 152.613C110.423 152.613 110.426 152.613 110.429 152.613C110.432 152.613 110.435 152.613 110.438 152.613C110.441 152.613 110.444 152.613 110.447 152.613C110.45 152.613 110.453 152.613 110.456 152.613C110.459 152.613 110.462 152.613 110.465 152.613C110.468 152.613 110.471 152.613 110.474 152.613C110.477 152.613 110.48 152.613 110.483 152.613C110.486 152.613 110.489 152.613 110.492 152.613C110.495 152.613 110.498 152.613 110.501 152.613C110.504 152.613 110.507 152.613 110.51 152.613C110.513 152.613 110.516 152.613 110.519 152.613C110.522 152.613 110.525 152.613 110.528 152.613C110.531 152.613 110.534 152.613 110.537 152.613C110.54 152.613 110.543 152.613 110.546 152.613C110.549 152.613 110.552 152.613 110.555 152.613C110.558 152.613 110.561 152.613 110.564 152.613C110.567 152.613 110.57 152.613 110.573 152.613C110.576 152.613 110.579 152.613 110.582 152.613C110.585 152.613 110.588 152.613 110.591 152.613C110.594 152.613 110.597 152.613 110.6 152.613C110.603 152.613 110.606 152.613 110.609 152.613C110.612 152.613 110.615 152.613 110.618 152.613C110.621 152.613 110.624 152.613 110.627 152.613C110.63 152.613 110.633 152.613 110.636 152.613C110.639 152.613 110.642 152.613 110.645 152.613C110.648 152.613 110.651 152.613 110.654 152.613C110.657 152.613 110.66 152.613 110.663 152.613C110.666 152.613 110.669 152.613 110.672 152.613C110.675 152.613 110.678 152.613 110.681 152.613C110.684 152.613 110.687 152.613 110.69 152.613C110.693 152.613 110.696 152.613 110.699 152.613C110.702 152.613 110.705 152.613 110.708 152.613C110.711 152.613 110.714 152.613 110.717 152.613C110.72 152.613 110.723 152.613 110.726 152.613C110.729 152.613 110.732 152.613 110.735 152.613C110.738 152.613 110.741 152.613 110.744 152.613C110.747 152.613 110.75 152.613 110.753 152.613C110.756 152.613 110.759 152.613 110.762 152.613C110.765 152.613 110.768 152.613 110.771 152.613C110.774 152.613 110.777 152.613 110.78 152.613C110.783 152.613 110.786 152.613 110.789 152.613C110.792 152.613 110.795 152.613 110.798 152.613C110.801 152.613 110.804 152.613 110.807 152.613C110.81 152.613 110.813 152.613 110.816 152.613C110.819 152.613 110.822 152.613 110.825 152.613C110.828 152.613 110.831 152.613 110.834 152.613C110.837 152.613 110.84 152.613 110.843 152.613C110.846 152.613 110.849 152.613 110.852 152.613C110.855 152.613 110.858 152.613 110.861 152.613C110.864 152.613 110.867 152.613 110.87 152.613C110.873 152.613 110.876 152.613 110.879 152.613C110.882 152.613 110.885 152.613 110.888 152.613C110.891 152.613 110.894 152.613 110.897 152.613C110.9 152.613 110.903 152.613 110.906 152.613C110.909 152.613 110.912 152.613 110.915 152.613C110.918 152.613 110.921 152.613 110.924 152.613C110.927 152.613 110.93 152.613 110.933 152.613C110.936 152.613 110.939 152.613 110.942 152.613C110.945 152.613 110.948 152.613 110.951 152.613C110.954 152.613 110.957 152.613 110.96 152.613C110.963 152.613 110.966 152.613 110.969 152.613C110.972 152.613 110.975 152.613 110.978 152.613C110.981 152.613 110.984 152.613 110.987 152.613C110.99 152.613 110.993 152.613 110.996 152.613C110.999 152.613 111.002 152.613 111.005 152.613C111.008 152.613 111.011 152.613 111.014 152.613C111.017 152.613 111.02 152.613 111.023 152.613C111.026 152.613 111.029 152.613 111.032 152.613C111.035 152.613 111.038 152.613 111.041 152.613C111.044 152.613 111.047 152.613 111.05 152.613C111.053 152.613 111.056 152.613 111.059 152.613C111.062 152.613 111.065 152.613 111.068 152.613C111.071 152.613 111.074 152.613 111.077 152.613C111.08 152.613 111.083 152.613 111.086 152.613C111.089 152.613 111.092 152.613 111.095 152.613C111.098 152.613 111.101 152.613 111.104 152.613C111.107 152.613 111.11 152.613 111.113 152.613C111.116 152.613 111.119 152.613 111.122 152.613C111.125 152.613 111.128 152.613 111.131 152.613C111.134 152.613 111.137 152.613 111.14 152.613C111.143 152.613 111.146 152.613 111.149 152.613C111.152 152.613 111.155 152.613 111.158 152.613C111.161 152.613 111.164 152.613 111.167 152.613C111.17 152.613 111.173 152.613 111.176 152.613C111.179 152.613 111.182 152.613 111.185 152.613C111.188 152.613 111.191 152.613 111.194 152.613C111.197 152.613 111.2 152.613 111.203 152.613C111.206 152.613 111.209 152.613 111.212 152.613C111.215 152.613 111.218 152.613 111.221 152.613C111.224 152.613 111.227 152.613 111.23 152.613C111.233 152.613 111.236 152.613 111.239 152.613C111.242 152.613 111.245 152.613 111.248 152.613C111.251 152.613 111.254 152.613 111.257 152.613C111.26 152.613 111.263 152.613 111.266 152.613C111.269 152.613 111.272 152.613 111.275 152.613C111.278 152.613 111.281 152.613 111.284 152.613C111.287 152.613 111.29 152.613 111.293 152.613C111.296 152.613 111.299 152.613 111.302 152.613C111.305 152.613 111.308 152.613 111.311 152.613C111.314 152.613 111.317 152.613 111.32 152.613C111.323 152.613 111.326 152.613 111.329 152.613C111.332 152.613 111.335 152.613 111.338 152.613C111.341 152.613 111.344 152.613 111.347 152.613C111.35 152.613 111.353 152.613 111.356 152.613C111.359 152.613 111.362 152.613 111.365 152.613C111.368 152.613 111.371 152.613 111.374 152.613C111.377 152.613 111.38 152.613 111.383 152.613C111.386 152.613 111.389 152.613 111.392 152.613C111.395 152.613 111.398 152.613 111.401 152.613C111.404 152.613 111.407 152.613 111.41 152.613C111.413 152.613 111.416 152.613 111.419 152.613C111.422 152.613 111.425 152.613 111.428 152.613C111.431 152.613 111.434 152.613 111.437 152.613C111.44 152.613 111.443 152.613 111.446 152.613C111.449 152.613 111.452 152.613 111.455 152.613C111.458 152.613 111.461 152.613 111.464 152.613C111.467 152.613 111.47 152.613 111.473 152.613C111.476 152.613 111.479 152.613 111.482 152.613C111.485 152.613 111.488 152.613 111.491 152.613C111.494 152.613 111.497 152.613 111.5 152.613C111.503 152.613 111.506 152.613 111.509 152.613C111.512 152.613 111.515 152.613 111.518 152.613C111.521 152.613 111.524 152.613 111.527 152.613C111.53 152.613 111.533 152.613 111.536 152.613C111.539 152.613 111.542 152.613 111.545 152.613C111.548 152.613 111.551 152.613 111.554 152.613C111.557 152.613 111.56 152.613 111.563 152.613C111.566 152.613 111.569 152.613 111.572 152.613C111.575 152.613 111.578 152.613 111.581 152.613C111.584 152.613 111.587 152.613 111.59 152.613C111.593 152.613 111.596 152.613 111.599 152.613C111.602 152.613 111.605 152.613 111.608 152.613C111.611 152.613 111.614 152.613 111.617 152.613C111.62 152.613 111.623 152.613 111.626 152.613C111.629 152.613 111.632 152.613 111.635 152.613C111.638 152.613 111.641 152.613 111.644 152.613C111.647 152.613 111.65 152.613 111.653 152.613C111.656 152.613 111.659 152.613 111.662 152.613C111.665 152.613 111.668 152.613 111.671 152.613C111.674 152.613 111.677 152.613 111.68 152.613C111.683 152.613 111.686 152.613 111.689 152.613C111.692 152.613 111.695 152.613 111.698 152.613C111.701 152.613 111.704 152.613 111.707 152.613C111.71 152.613 111.713 152.613 111.716 152.613C111.719 152.613 111.722 152.613 111.725 152.613C111.728 152.613 111.731 152.613 111.734 152.613C111.737 152.613 111.74 152.613 111.743 152.613C111.746 152.613 111.749 152.613 111.752 152.613C111.755 152.613 111.758 152.613 111.761 152.613C111.764 152.613 111.767 152.613 111.77 152.613C111.773 152.613 111.776 152.613 111.779 152.613C111.782 152.613 111.785 152.613 111.788 152.613C111.791 152.613 111.794 152.613 111.797 152.613C111.8 152.613 111.803 152.613 111.806 152.613C111.809 152.613 111.812 152.613 111.815 152.613C111.818 152.613 111.821 152.613 111.824 152.613C111.827 152.613 111.83 152.613 111.833 152.613C111.836 152.613 111.839 152.613 111.842 152.613C111.845 152.613 111.848 152.613 111.851 152.613C111.854 152.613 111.857 152.613 111.86 152.613C111.863 152.613 111.866 152.613 111.869 152.613C111.872 152.613 111.875 152.613 111.878 152.613C111.881 152.613 111.884 152.613 111.887 152.613C111.89 152.613 111.893 152.613 111.896 152.613C111.899 152.613 111.902 152.613 111.905 152.613C111.908 152.613 111.911 152.613 111.914 152.613C111.917 152.613 111.92 152.613 111.923 152.613C111.926 152.613 111.929 152.613 111.932 152.613C111.935 152.613 111.938 152.613 111.941 152.613C111.944 152.613 111.947 152.613 111.95 152.613C111.953 152.613 111.956 152.613 111.959 152.613C111.962 152.613 111.965 152.613 111.968 152.613C111.971 152.613 111.974 152.613 111.977 152.613C111.98 152.613 111.983 152.613 111.986 152.613C111.989 152.613 111.992 152.613 111.995 152.613C111.998 152.613 112.001 152.613 112.004 152.613C112.007 152.613 112.01 152.613 112.013 152.613C112.016 152.613 112.019 152.613 112.022 152.613C112.025 152.613 112.028 152.613 112.031 152.613C112.034 152.613 112.037 152.613 112.04 152.613C112.043 152.613 112.046 152.613 112.049 152.613C112.052 152.613 112.055 152.613 112.058 152.613C112.061 152.613 112.064 152.613 112.067 152.613C112.07 152.613 112.073 152.613 112.076 152.613C112.079 152.613 112.082 152.613 112.085 152.613C112.088 152.613 112.091 152.613 112.094 152.613C112.097 152.613 112.1 152.613 112.103 152.613C112.106 152.613 112.109 152.613 112.112 152.613C112.115 152.613 112.118 152.613 112.121 152.613C112.124 152.613 112.127 152.613 112.13 152.613C112.133 152.613 112.136 152.613 112.139 152.613C112.142 152.613 112.145 152.613 112.148 152.613C112.151 152.613 112.154 152.613 112.157 152.613C112.16 152.613 112.163 152.613 112.166 152.613C112.169 152.613 112.172 152.613 112.175 152.613C112.178 152.613 112.181 152.613 112.184 152.613C112.187 152.613 112.19 152.613 112.193 152.613C112.196 152.613 112.199 152.613 112.202 152.613C112.205 152.613 112.208 152.613 112.211 152.613C112.214 152.613 112.217 152.613 112.22 152.613C112.223 152.613 112.226 152.613 112.229 152.613C112.232 152.613 112.235 152.613 112.238 152.613C112.241 152.613 112.244 152.613 112.247 152.613C112.25 152.613 112.253 152.613 112.256 152.613C112.259 152.613 112.262 152.613 112.265 152.613C112.268 152.613 112.271 152.613 112.274 152.613C112.277 152.613 112.28 152.613 112.283 152.613C112.286 152.613 112.289 152.613 112.292 152.613C112.295 152.613 112.298 152.613 112.301 152.613C112.304 152.613 112.307 152.613 112.31 152.613C112.313 152.613 112.316 152.613 112.319 152.613C112.322 152.613 112.325 152.613 112.328 152.613C112.331 152.613 112.334 152.613 112.337 152.613C112.34 152.613 112.343 152.613 112.346 152.613C112.349 152.613 112.352 152.613 112.355 152.613C112.358 152.613 112.361 152.613 112.364 152.613C112.367 152.613 112.37 152.613 112.373 152.613C112.376 152.613 112.379 152.613 112.382 152.613C112.385 152.613 112.388 152.613 112.391 152.613C112.394 152.613 112.397 152.613 112.4 152.613C112.403 152.613 112.406 152.613 112.409 152.613C112.412 152.613 112.415 152.613 112.418 152.613C112.421 152.613 112.424 152.613 112.427 152.613C112.43 152.613 112.433 152.613 112.436 152.613C112.439 152.613 112.442 152.613 112.445 152.613C112.448 152.613 112.451 152.613 112.454 152.613C112.457 152.613 112.46 152.613 112.463 152.613C112.466 152.613 112.469 152.613 112.472 152.613C112.475 152.613 112.478 152.613 112.481 152.613C112.484 152.613 112.487 152.613 112.49 152.613C112.493 152.613 112.496 152.613 112.499 152.613C112.502 152.613 112.505 152.613 112.508 152.613C112.511 152.613 112.514 152.613 112.517 152.613C112.52 152.613 112.523 152.613 112.526 152.613C112.529 152.613 112.532 152.613 112.535 152.613C112.538 152.613 112.541 152.613 112.544 152.613C112.547 152.613 112.55 152.613 112.553 152.613C112.556 152.613 112.559 152.613 112.562 152.613C112.565 152.613 112.568 152.613 112.571 152.613C112.574 152.613 112.577 152.613 112.58 152.613C112.583 152.613 112.586 152.613 112.589 152.613C112.592 152.613 112.595 152.613 112.598 152.613C112.601 152.613 112.604 152.613 112.607 152.613C112.61 152.613 112.613 152.613 112.616 152.613C112.619 152.613 112.622 152.613 112.625 152.613C112.628 152.613 112.631 152.613 112.634 152.613C112.637 152.613 112.64 152.613 112.643 152.613C112.646 152.613 112.649 152.613 112.652 152.613C112.655 152.613 112.658 152.613 112.661 152.613C112.664 152.613 112.667 152.613 112.67 152.613C112.673 152.613 112.676 152.613 112.679 152.613C112.682 152.613 112.685 152.613 112.688 152.613C112.691 152.613 112.694 152.613 112.697 152.613C112.7 152.613 112.703 152.613 112.706 152.613C112.709 152.613 112.712 152.613 112.715 152.613C112.718 152.613 112.721 152.613 112.724 152.613C112.727 152.613 112.73 152.613 112.733 152.613C112.736 152.613 112.739 152.613 112.742 152.613C112.745 152.613 112.748 152.613 112.751 152.613C112.754 152.613 112.757 152.613 112.76 152.613C112.763 152.613 112.766 152.613 112.769 152.613C112.772 152.613 112.775 152.613 112.778 152.613C112.781 152.613 112.784 152.613 112.787 152.613C112.79 152.613 112.793 152.613 112.796 152.613C112.799 152.613 112.802 152.613 112.805 152.613C112.808 152.613 112.811 152.613 112.814 152.613C112.817 152.613 112.82 152.613 112.823 152.613C112.826 152.613 112.829 152.613 112.832 152.613C112.835 152.613 112.838 152.613 112.841 152.613C112.844 152.613 112.847 152.613 112.85 152.613C112.853 152.613 112.856 152.613 112.859 152.613C112.862 152.613 112.865 152.613 112.868 152.613C112.871 152.613 112.874 152.613 112.877 152.613C112.88 152.613 112.883 152.613 112.886 152.613C112.889 152.613 112.892 152.613 112.895 152.613C112.898 152.613 112.901 152.613 112.904 152.613C112.907 152.613 112.91 152.613 112.913 152.613C112.916 152.613 112.919 152.613 112.922 152.613C112.925 152.613 112.928 152.613 112.931 152.613C112.934 152.613 112.937 152.613 112.94 152.613C112.943 152.613 112.946 152.613 112.949 152.613C112.952 152.613 112.955 152.613 112.958 152.613C112.961 152.613 112.964 152.613 112.967 152.613C112.97 152.613 112.973 152.613 112.976 152.613C112.979 152.613 112.982 152.613 112.985 152.613C112.988 152.613 112.991 152.613 112.994 152.613C112.997 152.613 113 152.613 113.003 152.613C113.006 152.613 113.009 152.613 113.012 152.613C113.015 152.613 113.018 152.613 113.021 152.613C113.024 152.613 113.027 152.613 113.03 152.613C113.033 152.613 113.036 152.613 113.039 152.613C113.042 152.613 113.045 152.613 113.048 152.613C113.051 152.613 113.054 152.613 113.057 152.613C113.06 152.613 113.063 152.613 113.066 152.613C113.069 152.613 113.072 152.613 113.075 152.613C113.078 152.613 113.081 152.613 113.084 152.613C113.087 152.613 113.09 152.613 113.093 152.613C113.096 152.613 113.099 152.613 113.102 152.613C113.105 152.613 113.108 152.613 113.111 152.613C113.114 152.613 113.117 152.613 113.12 152.613C113.123 152.613 113.126 152.613 113.129 152.613C113.132 152.613 113.135 152.613 113.138 152.613C113.141 152.613 113.144 152.613 113.147 152.613C113.15 152.613 113.153 152.613 113.156 152.613C113.159 152.613 113.162 152.613 113.165 152.613C113.168 152.613 113.171 152.613 113.174 152.613C113.177 152.613 113.18 152.613 113.183 152.613C113.186 152.613 113.189 152.613 113.192 152.613C113.195 152.613 113.198 152.613 113.201 152.613C113.204 152.613 113.207 152.613 113.21 152.613C113.213 152.613 113.216 152.613 113.219 152.613C113.222 152.613 113.225 152.613 113.228 152.613C113.231 152.613 113.234 152.613 113.237 152.613C113.24 152.613 113.243 152.613 113.246 152.613C113.249 152.613 113.252 152.613 113.255 152.613C113.258 152.613 113.261 152.613 113.264 152.613C113.267 152.613 113.27 152.613 113.273 152.613C113.276 152.613 113.279 152.613 113.282 152.613C113.285 152.613 113.288 152.613 113.291 152.613C113.294 152.613 113.297 152.613 113.3 152.613C113.303 152.613 113.306 152.613 113.309 152.613C113.312 152.613 113.315 152.613 113.318 152.613C113.321 152.613 113.324 152.613 113.327 152.613C113.33 152.613 113.333 152.613 113.336 152.613C113.339 152.613 113.342 152.613 113.345 152.613C113.348 152.613 113.351 152.613 113.354 152.613C113.357 152.613 113.36 152.613 113.363 152.613C113.366 152.613 113.369 152.613 113.372 152.613C113.375 152.613 113.378 152.613 113.381 152.613C113.384 152.613 113.387 152.613 113.39 152.613C113.393 152.613 113.396 152.613 113.399 152.613C113.402 152.613 113.405 152.613 113.408 152.613C113.411 152.613 113.414 152.613 113.417 152.613C113.42 152.613 113.423 152.613 113.426 152.613C113.429 152.613 113.432 152.613 113.435 152.613C113.438 152.613 113.441 152.613 113.444 152.613C113.447 152.613 113.45 152.613 113.453 152.613C113.456 152.613 113.459 152.613 113.462 152.613C113.465 152.613 113.468 152.613 113.471 152.613C113.474 152.613 113.477 152.613 113.48 152.613C113.483 152.613 113.486 152.613 113.489 152.613C113.492 152.613 113.495 152.613 113.498 152.613C113.501 152.613 113.504 152.613 113.507 152.613C113.51 152.613 113.513 152.613 113.516 152.613C113.519 152.613 113.522 152.613 113.525 152.613V132.613ZM108.917 132.613C105.094 132.613 101.27 132.713 97.4477 132.915L98.4989 152.887C101.972 152.704 105.445 152.613 108.917 152.613V132.613ZM96.9782 132.95C96.6672 132.982 96.3593 132.997 96.0533 132.997V152.997C97.0272 152.997 97.9993 152.948 98.9683 152.851L96.9782 132.95ZM95.0582 133.046C94.7472 133.078 94.4393 133.093 94.1333 133.093V153.093C95.1072 153.093 96.0793 153.044 97.0483 152.947L95.0582 133.046ZM94.1333 133.093C95.2013 133.093 97.8056 133.399 100.015 135.725C102.134 137.955 102.309 140.396 102.309 141.173H82.3093C82.3093 143.23 82.7888 146.63 85.5153 149.5C88.333 152.466 91.8492 153.093 94.1333 153.093V133.093ZM102.309 141.173C102.309 142.43 102.019 143.849 101.282 145.218C100.559 146.561 99.6086 147.48 98.7937 148.062L87.1689 131.787C84.3248 133.819 82.3093 137.156 82.3093 141.173H102.309ZM98.7937 148.062C97.9397 148.672 96.3984 149.445 94.3253 149.445V129.445C91.3562 129.445 88.9189 130.537 87.1689 131.787L98.7937 148.062ZM94.3253 149.445C94.6339 149.445 94.8712 149.46 95.045 149.48L97.2536 129.602C96.2754 129.493 95.2967 129.445 94.3253 129.445V149.445ZM95.1542 149.491C96.1232 149.588 97.0953 149.637 98.0693 149.637V129.637C97.7632 129.637 97.4553 129.622 97.1443 129.59L95.1542 149.491ZM98.0693 149.637C99.6849 149.637 101.305 149.463 102.91 149.093L98.4127 129.605C98.3535 129.619 98.2457 129.637 98.0693 129.637V149.637ZM102.91 149.093C105.862 148.411 108.538 146.588 110.207 143.764C111.664 141.297 111.909 138.823 111.909 137.237H91.9093C91.9093 136.866 91.9464 135.352 92.988 133.59C94.2409 131.469 96.2928 130.094 98.4127 129.605L102.91 149.093ZM111.909 137.237C111.909 127.659 111.941 118.081 112.005 108.503L92.0055 108.37C91.9414 117.992 91.9093 127.615 91.9093 137.237H111.909ZM112.005 108.503C112.069 98.8812 112.101 89.259 112.101 79.6368H92.1013C92.1013 89.2146 92.0694 98.7923 92.0055 108.37L112.005 108.503ZM98.1621 70.4453C98.1721 70.4411 98.0309 70.5001 97.6441 70.6433C97.288 70.7752 96.8128 70.9458 96.2058 71.1582L102.813 90.0354C104.057 89.5998 105.233 89.1744 106.04 88.8283L98.1621 70.4453ZM96.498 71.061C95.1246 71.4947 93.6757 71.9902 92.1558 72.5429L98.9907 91.3387C100.287 90.8674 101.462 90.4669 102.521 90.1326L96.498 71.061ZM92.5412 72.4115C91.0987 72.8705 89.7744 73.3008 88.571 73.702L94.8956 92.6756C95.9962 92.3088 97.2319 91.907 98.6053 91.47L92.5412 72.4115ZM89.0569 73.5536C88.8129 73.6214 88.6118 73.6753 88.4495 73.7173C88.2842 73.7601 88.1797 73.7851 88.1251 73.7975C88.0576 73.8128 88.114 73.7981 88.2533 73.7749C88.326 73.7627 88.4674 73.7405 88.6577 73.7198C88.7556 73.7092 88.8833 73.6971 89.0348 73.6874C89.1837 73.6779 89.3835 73.6688 89.6213 73.6688V93.6688C91.0407 93.6688 92.3431 93.3489 92.5575 93.3001C93.1306 93.1699 93.7659 93.0028 94.4097 92.824L89.0569 73.5536ZM89.6213 73.6688C90.7158 73.6688 92.2897 73.9715 93.8017 75.0515L82.1769 91.3261C84.5849 93.0461 87.2467 93.6688 89.6213 93.6688V73.6688ZM94.4972 75.5962C95.3509 76.328 96.1218 77.3085 96.6469 78.5086C97.1625 79.6872 97.3173 80.7926 97.3173 81.6528H77.3173C77.3173 84.9324 78.6131 88.3228 81.4814 90.7814L94.4972 75.5962ZM97.3173 81.6528C97.3173 81.6534 97.318 81.7899 97.2881 82.0291C97.2595 82.258 97.188 82.7035 96.9961 83.2791L78.0225 76.9545C77.4162 78.7734 77.3173 80.4867 77.3173 81.6528H97.3173ZM96.4536 84.5889C95.7401 86.0158 94.7906 86.9549 94.0624 87.515C93.3556 88.0587 92.754 88.3284 92.4712 88.4416L85.0434 69.872C83.4303 70.5172 80.3487 72.0773 78.565 75.6446L96.4536 84.5889ZM92.4712 88.4416C92.5757 88.3998 92.6299 88.3883 92.6385 88.3866L88.7161 68.775C87.4447 69.0293 86.2189 69.4018 85.0434 69.872L92.4712 88.4416ZM92.6384 88.3866C93.5931 88.1957 94.5375 87.959 95.4708 87.679L89.7238 68.5225C89.3771 68.6265 89.0414 68.7099 88.7161 68.775L92.6384 88.3866ZM95.1215 87.777C96.6277 87.384 98.1034 86.9905 99.5485 86.5964L94.2861 67.3012C92.9152 67.675 91.5109 68.0495 90.0731 68.4246L95.1215 87.777ZM99.9493 86.478C101.357 86.03 102.765 85.582 104.173 85.1341L98.1093 66.0755C96.7013 66.5235 95.2932 66.9715 93.8852 67.4195L99.9493 86.478ZM104.304 85.0916C104.772 84.9355 105.678 84.6213 106.941 84.1794L100.334 65.3022C99.0363 65.7563 98.2786 66.0181 97.979 66.118L104.304 85.0916ZM106.941 84.1794C108.214 83.7338 109.584 83.2559 111.05 82.7458L104.48 63.8558C103.003 64.3696 101.621 64.8518 100.334 65.3022L106.941 84.1794ZM111.05 82.7458C112.532 82.2304 113.827 81.7771 114.934 81.3867L108.277 62.5269C107.207 62.9044 105.942 63.3472 104.48 63.8558L111.05 82.7458ZM114.768 81.4436C115.311 81.2623 115.647 81.1556 115.823 81.1031C115.92 81.0739 115.88 81.0879 115.759 81.1182C115.702 81.1325 115.532 81.1743 115.296 81.2185C115.176 81.2411 114.981 81.2752 114.736 81.3058C114.61 81.3215 114.449 81.3392 114.26 81.3533C114.075 81.3672 113.824 81.3808 113.525 81.3808V61.3808C112.539 61.3808 111.762 61.5326 111.61 61.5611C111.311 61.6173 111.061 61.6771 110.908 61.7154C110.595 61.7937 110.298 61.8797 110.076 61.9465C109.611 62.0859 109.051 62.2672 108.443 62.47L114.768 81.4436ZM113.525 81.3808C112.929 81.3808 111.295 81.2724 109.514 80.0853L120.608 63.4443C118.06 61.7452 115.402 61.3808 113.525 61.3808V81.3808ZM111.122 80.9562C109.107 80.0928 107.535 78.5446 106.621 76.7169C105.816 75.1062 105.733 73.7186 105.733 73.1088H125.733C125.733 70.4776 124.714 65.0221 119.001 62.5733L111.122 80.9562ZM105.733 73.1088C105.733 83.6926 105.67 94.3087 105.542 104.957L125.541 105.197C125.669 94.4689 125.733 83.773 125.733 73.1088H105.733ZM105.541 105.017C105.477 115.725 105.445 126.433 105.445 137.141H125.445C125.445 126.473 125.477 115.805 125.541 105.137L105.541 105.017ZM105.445 137.141C105.445 140.79 107.023 143.821 109.142 145.94L123.284 131.798C123.769 132.282 124.337 133.004 124.775 133.991C125.225 135.002 125.445 136.084 125.445 137.141H105.445ZM109.57 146.343C111.349 147.924 114.19 149.637 117.941 149.637V129.637C120.541 129.637 122.23 130.837 122.857 131.395L109.57 146.343ZM117.941 149.637C119.076 149.637 120.209 149.596 121.342 149.515L119.917 129.566C119.257 129.613 118.599 129.637 117.941 129.637V149.637ZM121.342 149.515C122.001 149.468 122.66 149.445 123.317 149.445V129.445C122.183 129.445 121.049 129.485 119.917 129.566L121.342 149.515ZM123.317 149.445C121.786 149.445 120.096 149.034 118.549 148.049C117.067 147.107 116.181 145.936 115.691 145.078L133.056 135.155C131.343 132.158 127.962 129.445 123.317 129.445V149.445ZM116.053 145.664C115.438 144.741 114.757 143.228 114.757 141.269H134.757C134.757 138.542 133.821 136.26 132.694 134.57L116.053 145.664Z" fill="#FFB72A" mask="url(#path-2-outside-1_21_2)"/>
</g>
<defs>
<filter id="filter0_d_21_2" x="83.3173" y="67.3808" width="45.44" height="79.712" filterUnits="userSpaceOnUse" color-interpolation-filters="sRGB">
<feFlood flood-opacity="0" result="BackgroundImageFix"/>
<feColorMatrix in="SourceAlpha" type="matrix" values="0 0 0 0 0 0 0 0 0 0 0 0 0 0 0 0 0 0 127 0" result="hardAlpha"/>
<feOffset/>
<feGaussianBlur stdDeviation="2"/>
<feComposite in2="hardAlpha" operator="out"/>
<feColorMatrix type="matrix" values="0 0 0 0 0 0 0 0 0 0 0 0 0 0 0 0 0 0 0.3 0"/>
<feBlend mode="normal" in2="BackgroundImageFix" result="effect1_dropShadow_21_2"/>
<feBlend mode="normal" in="SourceGraphic" in2="effect1_dropShadow_21_2" result="shape"/>
</filter>
</defs>
</svg>
